<svg width="353" height="123" viewBox="0 0 353 123" fill="none" xmlns="http://www.w3.org/2000/svg">
<path d="M51.9308 4.81818V119H27.7898V27.7326H27.1207L0.972656 44.1239V22.7148L29.2393 4.81818H51.9308ZM115.203 121.509C105.613 121.472 97.3621 119.112 90.4487 114.428C83.5725 109.745 78.276 102.962 74.5592 94.0785C70.8795 85.1952 69.0582 74.5092 69.0954 62.0206C69.0954 49.5691 70.9352 38.9575 74.6149 30.1857C78.3318 21.4139 83.6283 14.7422 90.5045 10.1705C97.4178 5.56155 105.651 3.2571 115.203 3.2571C124.755 3.2571 132.97 5.56155 139.846 10.1705C146.759 14.7794 152.074 21.4697 155.791 30.2415C159.508 38.9761 161.348 49.5691 161.311 62.0206C161.311 74.5464 159.452 85.2509 155.735 94.1342C152.056 103.018 146.778 109.801 139.901 114.484C133.025 119.167 124.792 121.509 115.203 121.509ZM115.203 101.494C121.745 101.494 126.967 98.2042 130.87 91.6254C134.772 85.0465 136.705 75.1783 136.668 62.0206C136.668 53.3603 135.776 46.1496 133.992 40.3885C132.245 34.6274 129.754 30.2972 126.521 27.3981C123.324 24.4989 119.552 23.0494 115.203 23.0494C108.698 23.0494 103.495 26.3016 99.5922 32.8061C95.6895 39.3106 93.7196 49.0488 93.6824 62.0206C93.6824 70.7924 94.5558 78.1146 96.3028 83.9872C98.0869 89.8227 100.596 94.2086 103.829 97.1449C107.063 100.044 110.854 101.494 115.203 101.494ZM214.659 121.509C205.069 121.472 196.818 119.112 189.905 114.428C183.028 109.745 177.732 102.962 174.015 94.0785C170.335 85.1952 168.514 74.5092 168.551 62.0206C168.551 49.5691 170.391 38.9575 174.071 30.1857C177.788 21.4139 183.084 14.7422 189.96 10.1705C196.874 5.56155 205.106 3.2571 214.659 3.2571C224.211 3.2571 232.425 5.56155 239.302 10.1705C246.215 14.7794 251.53 21.4697 255.247 30.2415C258.964 38.9761 260.804 49.5691 260.766 62.0206C260.766 74.5464 258.908 85.2509 255.191 94.1342C251.511 103.018 246.233 109.801 239.357 114.484C232.481 119.167 224.248 121.509 214.659 121.509ZM214.659 101.494C221.2 101.494 226.423 98.2042 230.325 91.6254C234.228 85.0465 236.161 75.1783 236.124 62.0206C236.124 53.3603 235.232 46.1496 233.448 40.3885C231.701 34.6274 229.21 30.2972 225.977 27.3981C222.78 24.4989 219.008 23.0494 214.659 23.0494C208.154 23.0494 202.951 26.3016 199.048 32.8061C195.145 39.3106 193.175 49.0488 193.138 62.0206C193.138 70.7924 194.012 78.1146 195.759 83.9872C197.543 89.8227 200.052 94.2086 203.285 97.1449C206.519 100.044 210.31 101.494 214.659 101.494ZM331.844 97.5909V91.5696C331.844 86.9979 332.81 82.7978 334.743 78.9695C336.713 75.1039 339.557 72.0189 343.273 69.7145C347.027 67.3729 351.599 66.2021 356.989 66.2021C362.452 66.2021 367.043 67.3543 370.76 69.6587C374.514 71.9632 377.338 75.0482 379.234 78.9137C381.167 82.7421 382.133 86.9607 382.133 91.5696V97.5909C382.133 102.163 381.167 106.381 379.234 110.247C377.301 114.075 374.458 117.142 370.704 119.446C366.95 121.788 362.378 122.958 356.989 122.958C351.525 122.958 346.934 121.788 343.218 119.446C339.501 117.142 336.676 114.075 334.743 110.247C332.81 106.381 331.844 102.163 331.844 97.5909ZM348.068 91.5696V97.5909C348.068 100.23 348.7 102.72 349.964 105.062C351.265 107.403 353.606 108.574 356.989 108.574C360.371 108.574 362.675 107.422 363.902 105.118C365.166 102.813 365.798 100.304 365.798 97.5909V91.5696C365.798 88.8563 365.203 86.3288 364.013 83.9872C362.824 81.6456 360.482 80.4748 356.989 80.4748C353.643 80.4748 351.32 81.6456 350.019 83.9872C348.719 86.3288 348.068 88.8563 348.068 91.5696ZM273.248 32.2486V26.2273C273.248 21.6184 274.233 17.3997 276.203 13.5714C278.173 9.70584 281.016 6.62085 284.733 4.31641C288.487 2.01195 293.021 0.859728 298.337 0.859728C303.838 0.859728 308.446 2.01195 312.163 4.31641C315.88 6.62085 318.705 9.70584 320.638 13.5714C322.57 17.3997 323.537 21.6184 323.537 26.2273V32.2486C323.537 36.8575 322.552 41.0761 320.582 44.9045C318.649 48.7328 315.806 51.7992 312.052 54.1037C308.335 56.371 303.763 57.5046 298.337 57.5046C292.91 57.5046 288.32 56.3524 284.566 54.0479C280.849 51.7063 278.024 48.6399 276.091 44.8487C274.196 41.0204 273.248 36.8203 273.248 32.2486ZM289.583 26.2273V32.2486C289.583 34.9619 290.215 37.4708 291.479 39.7752C292.78 42.0797 295.066 43.2319 298.337 43.2319C301.756 43.2319 304.079 42.0797 305.306 39.7752C306.569 37.4708 307.201 34.9619 307.201 32.2486V26.2273C307.201 23.514 306.607 20.9865 305.417 18.6449C304.228 16.3033 301.868 15.1325 298.337 15.1325C295.029 15.1325 292.743 16.3218 291.479 18.7006C290.215 21.0794 289.583 23.5883 289.583 26.2273ZM280.607 119L359.107 4.81818H373.714L295.214 119H280.607Z" fill="#141416" fill-opacity="0.03"/>
</svg>
