<svg width="196" height="98" viewBox="0 0 196 98" fill="none" xmlns="http://www.w3.org/2000/svg">
<path d="M0 74.1133V60.9595L33.1435 9H44.5403V27.207H37.7953L16.9013 60.1108V60.728H64V74.1133H0ZM38.1054 88V70.1016L38.4155 64.2769V9H54.1539V88H38.1054Z" fill="#141416"/>
<path d="M132 74.1133V60.9595L165.144 9H176.54V27.207H169.795L148.901 60.1108V60.728H196V74.1133H132ZM170.105 88V70.1016L170.416 64.2769V9H186.154V88H170.105Z" fill="#141416"/>
<g clip-path="url(#clip0_650_2)">
<path d="M75.4103 28.7267C75.7577 28.4357 76.2564 28.4826 76.4895 28.8138L77.3297 30.0149C77.5629 30.3461 77.479 30.8344 77.1316 31.1254C76.7806 31.3729 76.3229 31.3226 76.0932 31.0349L75.2086 29.7937C74.9754 29.4625 75.0593 28.9742 75.4103 28.7267Z" fill="#7D7C7C"/>
<path d="M126.185 27.1689L126.223 27.1661C126.513 27.4567 126.97 27.4226 127.255 27.1281L127.785 26.5419C128.029 26.2114 127.994 25.7455 127.707 25.4936L127.704 25.4548C127.417 25.203 126.922 25.24 126.676 25.5316L126.145 26.1178C125.86 26.4124 125.898 26.9171 126.185 27.1689Z" fill="#7D7C7C"/>
<path d="M81.6785 25.1087C80.3651 25.1225 79.0756 24.924 77.8102 24.5132C77.3192 24.3393 77.0377 23.7707 77.1983 23.2534C77.1983 23.2534 77.2115 23.2524 77.2379 23.2504C77.3984 22.7331 77.855 22.4463 78.3063 22.6232C79.4071 22.9621 80.5349 23.1305 81.6899 23.1285C82.1256 23.096 82.5134 23.4881 82.554 24.0325C82.5947 24.577 82.1934 25.0702 81.6785 25.1087Z" fill="#6F6B6B"/>
<path d="M120.993 22.1725C122.356 21.9865 123.662 21.5941 124.911 20.9955C125.393 20.7489 125.598 20.144 125.353 19.657C125.067 19.173 124.55 18.9589 124.109 19.2024C123.02 19.7049 121.877 20.0429 120.68 20.2166C120.223 20.2507 119.881 20.6974 119.922 21.2418C119.963 21.7862 120.453 22.2128 120.993 22.1725Z" fill="#6F6B6B"/>
<path d="M80.5197 24.1696C80.4907 24.8569 80.299 25.5161 80.0274 26.1813C79.7951 26.6554 79.5086 27.1202 79.1678 27.5756C79.0467 27.7458 78.9123 27.9171 78.7645 28.0894C77.5825 29.4674 75.8723 30.764 73.9626 32.0754L70.5434 30.9201L72.9605 24.5729C73.9279 23.0094 75.0381 22.2816 76.1961 22.1951C76.3292 22.1852 76.4623 22.1752 76.5954 22.1653C76.5954 22.1653 76.6097 22.1777 76.6383 22.2024C76.7448 22.1944 76.8656 22.1988 77.0007 22.2156C77.0826 22.2364 77.1777 22.2561 77.2862 22.2749C77.3681 22.2957 77.4499 22.3164 77.5318 22.3372C77.6137 22.3579 77.6965 22.3921 77.7804 22.4395C77.8356 22.4623 77.9042 22.484 77.986 22.5048C78.2336 22.5938 78.4832 22.7095 78.7347 22.8519C78.8472 22.9241 78.9597 22.9963 79.0722 23.0685C79.2132 23.1655 79.3543 23.2624 79.4954 23.3594C79.6651 23.481 79.8348 23.6027 80.0045 23.7244C80.1762 23.8728 80.3479 24.0212 80.5197 24.1696Z" fill="#7D7C7C"/>
<path d="M121.954 21.0749C122.046 21.7533 122.34 22.3762 122.758 22.9899C123.038 23.4257 123.386 23.8431 123.801 24.242C123.95 24.3921 124.112 24.5412 124.288 24.6893C125.698 25.8737 127.633 26.8981 129.773 27.9071L133.076 26.2497L129.703 20.335C128.442 18.9378 127.204 18.3855 126.013 18.4744C125.876 18.4846 125.739 18.4948 125.602 18.5051C125.602 18.5051 125.589 18.5195 125.564 18.5482C125.455 18.5564 125.332 18.579 125.197 18.6159C125.117 18.6488 125.037 18.6816 124.957 18.7145C124.85 18.7494 124.756 18.7833 124.676 18.8161C124.595 18.849 124.516 18.8952 124.438 18.9547C124.385 18.9856 124.333 19.0164 124.28 19.0472C124.014 19.1745 123.764 19.3275 123.53 19.5063C123.426 19.5946 123.323 19.6829 123.219 19.7713C123.09 19.8884 122.961 20.0055 122.832 20.1226C122.678 20.2685 122.524 20.4143 122.37 20.5602C122.217 20.7328 122.079 20.9044 121.954 21.0749Z" fill="#7D7C7C"/>
<path d="M80.5285 24.2789C80.4991 24.9561 80.3075 25.6057 80.0363 26.2613C79.8044 26.7286 79.5185 27.1868 79.1785 27.6357C79.0577 27.8036 78.9236 27.9724 78.7762 28.1423C77.5971 29.501 75.8919 30.7799 73.9876 32.0736C72.7274 29.6661 74.7554 27.8866 76.3619 25.821C76.9367 24.9442 77.5291 24.3043 78.1423 23.9409C78.5756 23.6703 79.031 23.5171 79.5086 23.4815C79.6776 23.6012 79.8466 23.7209 80.0156 23.8407C80.1866 23.9867 80.3575 24.1328 80.5285 24.2789Z" fill="#6F6B6B"/>
<path d="M121.963 21.1842C122.055 21.8524 122.35 22.4656 122.77 23.0696C123.052 23.4986 123.402 23.9092 123.819 24.3016C123.969 24.4492 124.133 24.5958 124.31 24.7414C125.729 25.9061 127.677 26.9121 129.832 27.9027C130.764 25.3315 128.408 23.8795 126.442 22.0806C125.718 21.3008 125.012 20.758 124.326 20.4915C123.839 20.2896 123.347 20.2072 122.85 20.2443C122.695 20.3883 122.539 20.5323 122.383 20.6763C122.229 20.8466 122.089 21.0159 121.963 21.1842Z" fill="#6F6B6B"/>
<path d="M139.276 44.9943C134.924 49.0296 130.334 52.5986 123.721 51.8423C122.87 54.5272 117.219 55.5677 116.164 57.7032C110.515 56.669 109.019 59.5158 108.463 60.3907C106.437 63.6069 107.422 68.9164 107.626 72.7323L107.965 75.5251C104.327 77.2083 109.228 77.2423 105.486 77.5219C101.703 77.8044 102.052 76.6469 98.2046 75.5227L97.3852 73.8312C97.0381 70.268 96.0874 68.5085 93.8565 65.7312C97.0685 66.4927 97.6536 64.274 92.6593 63.9353C91.9803 63.1526 93.9801 62.5281 93.3448 61.6077C91.9847 59.6525 89.8237 58.9947 83.5973 54.839C81.138 55.5066 78.8724 55.5145 76.7317 55.0291C73.3195 54.3161 70.2259 52.4501 67.1978 50.3776C66.4625 44.8672 67.1404 39.8563 68.8545 35.1712C68.8525 35.1445 68.8515 35.1311 68.8515 35.1311C69.3419 33.7502 69.9148 32.3901 70.5702 31.0506L74.0153 32.2048C74.4676 38.2605 76.3556 40.7811 75.1733 44.4586C75.9017 42.8314 77.9315 41.833 80.1004 42.1549C81.5329 42.3705 82.7197 43.0884 83.4012 44.0861C83.4589 44.1355 83.5175 44.1984 83.5772 44.2746C84.5696 43.4745 85.8648 42.9342 87.3136 42.826C88.6819 42.7238 90.0057 43.1089 91.1089 43.7927C92.0911 43.3967 92.9213 43.1331 93.7172 42.9527C95.1883 42.6008 96.3956 42.5107 97.6522 42.5378C99.1935 42.584 100.744 42.7505 102.886 42.7115C104.969 42.4349 106.478 42.04 107.995 41.7653C109.234 41.5518 110.481 41.4587 111.948 41.5911C112.762 41.6513 113.622 41.7887 114.652 42.0344C115.642 41.1942 116.893 40.6168 118.262 40.5146C119.711 40.4064 121.112 40.7454 122.172 41.3921C122.22 41.3079 122.268 41.237 122.318 41.1795C122.884 40.0887 123.951 39.2025 125.295 38.7795C127.433 38.1359 129.548 38.8248 130.55 40.3228C128.835 36.8617 130.287 34.0916 129.835 28.0359L133.07 26.3828C133.917 27.61 134.686 28.87 135.376 30.1627C135.376 30.1627 135.377 30.176 135.379 30.2028C137.77 34.5812 139.185 39.4359 139.276 44.9943Z" fill="#7D7C7C"/>
<path d="M92.2456 57.5223C92.1288 57.3956 92.0243 57.2544 91.9322 57.0988C91.2653 56.2547 90.3553 55.3882 89.205 54.5396C86.1284 48.9186 80.9048 47.9679 75.3412 47.8553C73.7959 47.6456 72.0715 47.7338 70.2452 48.0734L70.2422 48.0329C68.8881 45.5337 68.5002 41.4184 68.8271 35.015C67.1265 39.7333 66.4568 44.7808 67.1935 50.3328C70.4403 53.3814 73.6245 55.0532 76.7583 55.5098C79.0393 55.8677 81.275 55.6194 83.5115 54.8429C90.1087 59.6735 91.3503 59.3295 92.7051 61.3005C93.338 62.2284 92.1338 60.9141 92.81 61.7033C92.9308 61.8839 96.6347 64.2626 93.7592 64.8013L93.2861 66.352C93.2861 66.352 95.3518 61.9222 92.2456 57.5223Z" fill="#6F6B6B"/>
<path d="M118.28 40.5239C116.91 40.6262 115.657 41.2058 114.666 42.0493C109.649 44.8542 104.802 43.9607 103.815 45.938C103.743 46.0649 103.891 56.1795 103.903 56.3406C103.851 56.1825 102.581 46.2327 102.488 46.0776C101.219 44.2688 96.4743 45.8382 91.0963 43.8097C89.9916 43.1226 88.6662 42.7356 87.2964 42.8379C85.8459 42.9462 84.5494 43.4886 83.556 44.2918C85.3012 45.4171 87.3117 51.1803 89.3089 54.5954C90.0961 55.9137 90.9711 56.7799 91.9459 57.3552C93.4313 58.2568 95.1043 58.4154 96.7652 58.4128C99.2753 58.3874 102.055 58.1797 103.948 56.9448C105.963 57.8878 108.744 57.6802 111.23 57.3326C112.872 57.0883 114.503 56.683 115.838 55.5708C116.717 54.8571 117.453 53.8705 118.036 52.4499C119.544 48.773 120.636 42.7781 122.195 41.4061C121.133 40.7563 119.73 40.4156 118.28 40.5239Z" fill="#7D7C7C"/>
<path d="M115.308 55.8C115.406 55.6573 115.503 55.5011 115.598 55.3314C116.139 54.3971 116.879 53.4074 117.902 52.3965C120.137 46.3788 125.216 44.6586 130.76 43.7164C132.273 43.2784 134.009 43.108 135.885 43.1711L135.882 43.1307C136.862 40.4571 136.636 36.3298 135.353 30.0466C137.757 34.4583 139.18 39.3496 139.273 44.9496C136.483 48.449 133.55 50.5777 130.486 51.4972C128.26 52.1917 125.988 52.2801 123.637 51.8462C122.782 54.5511 111.998 60.6495 110.938 62.8008C110.444 63.8128 105.767 57.0726 108.377 59.7253C108.283 59.9219 108.831 60.1075 108.735 60.2772L107.322 63.6107C107.322 63.6107 112.901 60.6116 115.308 55.8Z" fill="#6F6B6B"/>
<path d="M83.2455 24.1137C80.4062 26.5532 77.3316 28.662 74.0441 30.4248C73.586 29.7329 73.1253 29.0374 72.6622 28.338C75.5015 25.8985 78.5761 23.7897 81.8636 22.027C82.3267 22.7263 82.7874 23.4219 83.2455 24.1137Z" fill="#2F2F2F"/>
<path d="M74.689 28.5631C75.8585 30.2963 75.4018 32.6729 73.6501 33.8571C71.8983 35.0414 69.5253 34.5778 68.3559 32.8446C67.1789 31.1003 67.6356 28.7237 69.3873 27.5394C71.139 26.3551 73.5121 26.8187 74.689 28.5631Z" fill="#2F2F2F"/>
<path d="M87.5601 19.6185C88.7296 21.3517 88.2729 23.7283 86.5212 24.9126C84.7694 26.0968 82.3964 25.6333 81.227 23.9001C80.05 22.1557 80.5067 19.7791 82.2584 18.5948C84.0101 17.4105 86.3832 17.8741 87.5601 19.6185Z" fill="#2F2F2F"/>
<path d="M69.5899 30.3142C69.4881 31.2295 69.2187 31.4603 68.836 31.4748C68.3744 31.4937 68.0123 31.0058 68.1369 30.1727C68.2541 29.3772 68.7104 28.9386 69.1838 29.0583C69.5257 29.1529 69.7033 29.4887 69.5899 30.3142Z" fill="white"/>
<path d="M82.417 21.4008C82.3152 22.3162 82.0346 22.5546 81.6518 22.5691C81.2015 22.5804 80.8394 22.0925 80.9528 21.267C81.07 20.4715 81.5375 20.0253 81.9996 20.1526C82.3528 20.2396 82.5191 20.583 82.417 21.4008Z" fill="white"/>
<path d="M129.349 27.6156C126.075 25.8303 122.998 23.6848 120.139 21.1947C120.563 20.4743 120.99 19.7499 121.419 19.0216C124.692 20.8069 127.77 22.9524 130.628 25.4425C130.2 26.1708 129.773 26.8952 129.349 27.6156Z" fill="#2F2F2F"/>
<path d="M122.362 20.7809C121.24 22.54 118.855 23.0342 117.041 21.8616C115.227 20.6891 114.681 18.3007 115.803 16.5416C116.932 14.7711 119.317 14.2769 121.131 15.4495C122.945 16.6221 123.491 19.0105 122.362 20.7809Z" fill="#2F2F2F"/>
<path d="M134.958 30.1069C133.836 31.8659 131.452 32.3602 129.638 31.1876C127.824 30.015 127.278 27.6266 128.4 25.8675C129.529 24.0971 131.913 23.6029 133.728 24.7754C135.542 25.948 136.088 28.3364 134.958 30.1069Z" fill="#2F2F2F"/>
<path d="M118.893 16.6966C118.004 16.9558 117.679 16.7945 117.509 16.4442C117.301 16.0223 117.604 15.4971 118.427 15.2909C119.212 15.0924 119.805 15.3471 119.889 15.8335C119.942 16.1879 119.704 16.4829 118.893 16.6966Z" fill="white"/>
<path d="M131.448 25.9899C130.559 26.2491 130.222 26.0803 130.052 25.73C129.856 25.3157 130.159 24.7904 130.97 24.5767C131.755 24.3782 132.36 24.6405 132.432 25.1193C132.497 25.4812 132.247 25.7687 131.448 25.9899Z" fill="white"/>
<path d="M85.1373 36.9381C84.8084 34.857 84.8487 31.7019 86.1202 30.0096C88.3234 27.1161 91.5037 23.6795 95.6233 24.8339C98.5976 25.677 101.176 26.9007 103.079 27.9875C105.404 29.2911 108.246 29.2948 110.567 27.9638C113.963 26.0206 117.901 26.9363 120.112 30.167C120.482 30.6903 120.559 31.0676 120.82 31.648C122.541 35.4831 115.845 54.251 112.752 65.2202C109.667 76.2032 111.695 91.4907 111.812 91.7593C111.929 92.028 113.777 95.7849 109.998 94.1741C106.225 92.577 99.5127 82.1398 93.4196 66.2814C90.5705 58.8605 85.9625 42.0781 85.1373 36.9381Z" fill="#900B21"/>
<path d="M126.31 6.94728C123.889 4.1951 119.823 3.16924 116.195 3.97046C112.547 4.76504 109.348 7.20816 107.212 10.2846C105.869 12.2203 104.627 14.7244 103.969 17.2083C103.8 17.8963 103.163 18.3561 102.459 18.3157C100.064 18.2184 98.2337 18.2659 98.0806 18.2744C98.0806 18.2744 98.0737 18.2722 98.0597 18.2678L96.9402 18.4378C94.2838 18.8167 91.9845 20.461 90.7904 22.8548C90.7217 22.9928 90.869 23.1421 91.0216 23.065C92.4923 22.3559 97.2258 20.4106 100.753 22.9998C104.972 26.0822 106.492 27.3966 110.147 26.4441C113.579 25.5353 114.284 23.8192 116.815 24.3816C116.968 24.4074 117.092 24.2413 116.987 24.1053C116.271 23.2281 114.487 21.1001 113.347 20.3853C112.236 19.6908 110.506 19.2226 108.603 18.8935C108.108 18.8166 107.73 18.3885 107.754 17.8942C107.909 14.3386 109.546 10.5335 112.581 8.58616C116.025 6.38048 120.122 6.01323 123.64 8.24573C124.29 8.65713 124.934 9.1235 125.418 9.72196C125.924 10.3613 126.271 11.2357 126.479 12.0087C126.843 13.2534 126.889 14.8652 125.635 15.6542C125.08 16.0033 124.321 15.991 123.762 15.6884C123.308 15.4533 122.718 15.6998 122.534 16.189C122.377 16.5955 122.478 17.1638 122.89 17.2485C129.973 18.7285 129.56 10.6235 126.31 6.94728Z" fill="#28594A"/>
<path d="M80.0312 29.4427C79.6326 29.7077 79.1275 29.667 78.8101 29.338L75.7789 25.7231L77.1236 24.6819L80.1548 28.2968C80.4751 28.6649 80.3853 29.1419 80.0312 29.4427Z" fill="#7D7C7C"/>
<path d="M78.747 30.36C78.3484 30.6249 77.8433 30.5843 77.5259 30.2552L74.4947 26.6403L75.8394 25.5992L78.8706 29.2141C79.191 29.5821 79.1011 30.0592 78.747 30.36Z" fill="#7D7C7C"/>
<path d="M81.2567 28.5831C80.9104 28.8468 80.3789 28.8072 80.0693 28.4736L76.973 24.5826L78.2801 23.5733L81.3735 27.4249C81.686 27.7979 81.6 28.28 81.2567 28.5831Z" fill="#7D7C7C"/>
<path d="M81.908 27.2341C81.5717 27.5453 81.0461 27.4619 80.7804 27.1141L80.0292 26.1487L78.1327 23.7571L77.9128 23.4875L78.7383 22.7721C78.8503 22.8455 78.9623 22.9188 79.0743 22.9922C79.2148 23.0906 79.3554 23.1891 79.4959 23.2875C79.6649 23.4111 79.8339 23.5347 80.003 23.6583C80.174 23.8089 80.3451 23.9596 80.5161 24.1102L82.0614 26.0786C82.3271 26.4265 82.2871 26.9607 81.908 27.2341Z" fill="#7D7C7C"/>
<path d="M125.014 26.5651L125.017 26.6042C125.406 26.8108 125.851 26.6597 126.075 26.3288L128.214 22.7526L126.871 21.989L124.732 25.5652C124.511 25.9351 124.628 26.3976 125.014 26.5651Z" fill="#7D7C7C"/>
<path d="M123.452 26.1998C123.861 26.4044 124.325 26.2914 124.573 25.9201L126.872 21.9071L125.471 21.0711L123.172 25.084C122.927 25.4943 123.08 25.9533 123.452 26.1998Z" fill="#7D7C7C"/>
<path d="M122.137 25.5298C122.518 25.7391 123.038 25.621 123.295 25.2451L125.779 20.9374L124.336 20.1334L121.849 24.4018C121.596 24.8171 121.752 25.281 122.137 25.5298Z" fill="#7D7C7C"/>
<path d="M121.038 24.3116C121.417 24.5693 121.924 24.4089 122.175 24.0224L122.774 22.9562L124.255 20.3124L124.432 20.0131L123.51 19.4283C123.41 19.5174 123.31 19.6066 123.21 19.6958C123.086 19.814 122.961 19.9323 122.837 20.0505C122.688 20.1978 122.539 20.3451 122.391 20.4924C122.244 20.6668 122.11 20.8402 121.99 21.0127L120.715 23.1917C120.503 23.5752 120.622 24.0975 121.038 24.3116Z" fill="#7D7C7C"/>
</g>
<defs>
<clipPath id="clip0_650_2">
<rect width="98" height="98" fill="white" transform="translate(56)"/>
</clipPath>
</defs>
</svg>
