<svg width="196" height="79" viewBox="0 0 196 79" fill="none" xmlns="http://www.w3.org/2000/svg">
<g clip-path="url(#clip0_1_105)">
<g clip-path="url(#clip1_1_105)">
<mask id="mask0_1_105" style="mask-type:luminance" maskUnits="userSpaceOnUse" x="49" y="-10" width="98" height="98">
<path d="M147 -10H49V88H147V-10Z" fill="white"/>
</mask>
<g mask="url(#mask0_1_105)">
<path d="M68.4103 18.7267C68.7577 18.4357 69.2564 18.4826 69.4895 18.8138L70.3297 20.0149C70.5629 20.3461 70.479 20.8344 70.1316 21.1254C69.7806 21.3729 69.3229 21.3226 69.0932 21.0349L68.2086 19.7937C67.9754 19.4625 68.0593 18.9742 68.4103 18.7267Z" fill="#7D7C7C"/>
<path d="M119.185 17.1689L119.223 17.1661C119.513 17.4567 119.97 17.4226 120.255 17.1281L120.785 16.5419C121.029 16.2114 120.994 15.7455 120.707 15.4936L120.704 15.4548C120.417 15.203 119.922 15.24 119.676 15.5316L119.145 16.1178C118.86 16.4124 118.898 16.9171 119.185 17.1689Z" fill="#7D7C7C"/>
<path d="M74.6785 15.1087C73.3651 15.1225 72.0756 14.924 70.8102 14.5132C70.3192 14.3393 70.0377 13.7707 70.1983 13.2534C70.1983 13.2534 70.2115 13.2524 70.2379 13.2504C70.3984 12.7331 70.855 12.4463 71.3063 12.6232C72.4071 12.9621 73.5349 13.1305 74.6899 13.1285C75.1256 13.096 75.5134 13.4881 75.554 14.0325C75.5947 14.577 75.1934 15.0702 74.6785 15.1087Z" fill="#6F6B6B"/>
<path d="M113.993 12.1725C115.356 11.9865 116.662 11.5941 117.911 10.9955C118.393 10.7489 118.598 10.144 118.353 9.657C118.067 9.173 117.55 8.9589 117.109 9.2024C116.02 9.7049 114.877 10.0429 113.68 10.2166C113.223 10.2507 112.881 10.6974 112.922 11.2418C112.962 11.7862 113.453 12.2128 113.993 12.1725Z" fill="#6F6B6B"/>
<path d="M73.5197 14.1696C73.4907 14.8569 73.299 15.5161 73.0274 16.1813C72.7951 16.6554 72.5086 17.1202 72.1678 17.5756C72.0467 17.7458 71.9123 17.9171 71.7645 18.0894C70.5825 19.4674 68.8723 20.764 66.9626 22.0754L63.5434 20.9201L65.9605 14.5729C66.9279 13.0094 68.0381 12.2816 69.1961 12.1951C69.3292 12.1852 69.4623 12.1752 69.5954 12.1653C69.5954 12.1653 69.6097 12.1777 69.6383 12.2024C69.7448 12.1944 69.8656 12.1988 70.0007 12.2156C70.0826 12.2364 70.1777 12.2561 70.2862 12.2749C70.3681 12.2957 70.4499 12.3164 70.5318 12.3372C70.6137 12.3579 70.6965 12.3921 70.7804 12.4395C70.8356 12.4623 70.9042 12.484 70.986 12.5048C71.2336 12.5938 71.4832 12.7095 71.7347 12.8519C71.8472 12.9241 71.9597 12.9963 72.0722 13.0685C72.2132 13.1655 72.3543 13.2624 72.4954 13.3594C72.6651 13.481 72.8348 13.6027 73.0045 13.7244C73.1762 13.8728 73.3479 14.0212 73.5197 14.1696Z" fill="#7D7C7C"/>
<path d="M114.954 11.0749C115.046 11.7533 115.34 12.3762 115.757 12.9899C116.038 13.4257 116.386 13.8431 116.801 14.242C116.95 14.3921 117.112 14.5412 117.288 14.6893C118.698 15.8737 120.633 16.8981 122.773 17.9071L126.076 16.2497L122.703 10.335C121.442 8.9378 120.204 8.3855 119.013 8.4744C118.876 8.4846 118.739 8.4948 118.602 8.5051C118.602 8.5051 118.589 8.5195 118.564 8.5482C118.455 8.5564 118.332 8.579 118.198 8.6159C118.117 8.6488 118.037 8.6816 117.957 8.7145C117.85 8.7494 117.756 8.7833 117.676 8.8161C117.595 8.849 117.516 8.8952 117.438 8.9547C117.386 8.9856 117.333 9.0164 117.28 9.0472C117.014 9.1745 116.764 9.3275 116.53 9.5063C116.426 9.5946 116.323 9.6829 116.219 9.7713C116.09 9.8884 115.961 10.0055 115.832 10.1226C115.678 10.2685 115.524 10.4143 115.37 10.5602C115.217 10.7328 115.079 10.9044 114.954 11.0749Z" fill="#7D7C7C"/>
<path d="M73.5285 14.2789C73.4991 14.9561 73.3075 15.6057 73.0363 16.2613C72.8044 16.7286 72.5185 17.1868 72.1785 17.6357C72.0577 17.8036 71.9236 17.9724 71.7762 18.1423C70.5971 19.501 68.8919 20.7799 66.9876 22.0736C65.7274 19.6661 67.7554 17.8866 69.3619 15.821C69.9367 14.9442 70.5291 14.3043 71.1423 13.9409C71.5756 13.6703 72.031 13.5171 72.5086 13.4815C72.6776 13.6012 72.8466 13.7209 73.0156 13.8407C73.1866 13.9867 73.3575 14.1328 73.5285 14.2789Z" fill="#6F6B6B"/>
<path d="M114.963 11.1842C115.055 11.8524 115.35 12.4656 115.77 13.0696C116.052 13.4986 116.402 13.9092 116.819 14.3016C116.969 14.4492 117.133 14.5958 117.31 14.7414C118.729 15.9061 120.677 16.9121 122.832 17.9027C123.764 15.3315 121.408 13.8795 119.442 12.0806C118.718 11.3008 118.011 10.758 117.326 10.4915C116.839 10.2896 116.347 10.2072 115.85 10.2443C115.695 10.3883 115.539 10.5323 115.383 10.6763C115.229 10.8466 115.089 11.0159 114.963 11.1842Z" fill="#6F6B6B"/>
<path d="M132.276 34.9943C127.924 39.0296 123.334 42.5986 116.721 41.8423C115.87 44.5272 110.219 45.5677 109.164 47.7032C103.515 46.669 102.018 49.5158 101.463 50.3907C99.4373 53.6069 100.422 58.9164 100.626 62.7323L100.965 65.5251C97.3267 67.2083 102.228 67.2423 98.4855 67.5219C94.7025 67.8044 95.0522 66.6469 91.2046 65.5227L90.3852 63.8312C90.0381 60.268 89.0874 58.5085 86.8565 55.7312C90.0685 56.4927 90.6536 54.274 85.6593 53.9353C84.9803 53.1526 86.9801 52.5281 86.3448 51.6077C84.9847 49.6525 82.8237 48.9947 76.5973 44.839C74.138 45.5066 71.8724 45.5145 69.7317 45.0291C66.3195 44.3161 63.2259 42.4501 60.1978 40.3776C59.4625 34.8672 60.1404 29.8563 61.8545 25.1712C61.8525 25.1445 61.8515 25.1311 61.8515 25.1311C62.3419 23.7502 62.9148 22.3901 63.5702 21.0506L67.0153 22.2048C67.4676 28.2605 69.3556 30.7811 68.1733 34.4586C68.9017 32.8314 70.9315 31.833 73.1004 32.1549C74.5329 32.3705 75.7197 33.0884 76.4012 34.0861C76.4589 34.1355 76.5175 34.1984 76.5772 34.2746C77.5696 33.4745 78.8648 32.9342 80.3136 32.826C81.6819 32.7238 83.0057 33.1089 84.1089 33.7927C85.0911 33.3967 85.9213 33.1331 86.7172 32.9527C88.1883 32.6008 89.3956 32.5107 90.6522 32.5378C92.1935 32.584 93.7437 32.7505 95.8857 32.7115C97.9694 32.4349 99.4778 32.04 100.995 31.7653C102.234 31.5518 103.481 31.4587 104.948 31.5911C105.762 31.6513 106.622 31.7887 107.652 32.0344C108.642 31.1942 109.893 30.6168 111.262 30.5146C112.711 30.4064 114.112 30.7454 115.172 31.3921C115.22 31.3079 115.268 31.237 115.318 31.1795C115.884 30.0887 116.951 29.2025 118.295 28.7795C120.432 28.1359 122.548 28.8248 123.55 30.3228C121.835 26.8617 123.287 24.0916 122.835 18.0359L126.07 16.3828C126.917 17.61 127.686 18.87 128.376 20.1627C128.376 20.1627 128.377 20.176 128.379 20.2028C130.77 24.5812 132.185 29.4359 132.276 34.9943Z" fill="#7D7C7C"/>
<path d="M85.2456 47.5223C85.1288 47.3956 85.0243 47.2544 84.9322 47.0988C84.2653 46.2547 83.3553 45.3882 82.205 44.5396C79.1284 38.9186 73.9048 37.9679 68.3412 37.8553C66.7959 37.6456 65.0715 37.7338 63.2452 38.0734L63.2422 38.0329C61.8881 35.5337 61.5002 31.4184 61.8271 25.015C60.1265 29.7333 59.4568 34.7808 60.1935 40.3328C63.4403 43.3814 66.6245 45.0532 69.7583 45.5098C72.0393 45.8677 74.275 45.6194 76.5115 44.8429C83.1087 49.6735 84.3503 49.3295 85.7051 51.3005C86.338 52.2284 85.1338 50.9141 85.81 51.7033C85.9308 51.8839 89.6347 54.2626 86.7592 54.8013L86.2861 56.352C86.2861 56.352 88.3518 51.9222 85.2456 47.5223Z" fill="#6F6B6B"/>
<path d="M111.28 30.5239C109.91 30.6262 108.657 31.2058 107.666 32.0493C102.649 34.8542 97.8018 33.9607 96.815 35.938C96.7435 36.0649 96.8912 46.1795 96.9032 46.3406C96.8509 46.1825 95.5811 36.2327 95.4884 36.0776C94.2189 34.2688 89.4743 35.8382 84.0963 33.8097C82.9916 33.1226 81.6662 32.7356 80.2964 32.8379C78.8459 32.9462 77.5494 33.4886 76.556 34.2918C78.3012 35.4171 80.3117 41.1803 82.3089 44.5954C83.0961 45.9137 83.9711 46.7799 84.9459 47.3552C86.4313 48.2568 88.1043 48.4154 89.7652 48.4128C92.2753 48.3874 95.0553 48.1797 96.9483 46.9448C98.9635 47.8878 101.743 47.6802 104.229 47.3326C105.872 47.0883 107.503 46.683 108.838 45.5708C109.717 44.8571 110.453 43.8705 111.036 42.4499C112.544 38.773 113.636 32.7781 115.195 31.4061C114.133 30.7563 112.73 30.4156 111.28 30.5239Z" fill="#7D7C7C"/>
<path d="M108.308 45.8C108.406 45.6573 108.503 45.5011 108.598 45.3314C109.139 44.3971 109.879 43.4074 110.901 42.3965C113.137 36.3788 118.216 34.6586 123.759 33.7164C125.273 33.2784 127.009 33.108 128.885 33.1711L128.882 33.1307C129.862 30.4571 129.635 26.3298 128.353 20.0466C130.757 24.4583 132.18 29.3496 132.273 34.9496C129.483 38.449 126.55 40.5777 123.486 41.4972C121.26 42.1917 118.988 42.2801 116.637 41.8462C115.781 44.5511 104.998 50.6495 103.938 52.8008C103.444 53.8128 98.767 47.0726 101.377 49.7253C101.283 49.9219 101.831 50.1075 101.735 50.2772L100.322 53.6107C100.322 53.6107 105.901 50.6116 108.308 45.8Z" fill="#6F6B6B"/>
<path d="M76.2455 14.1137C73.4062 16.5532 70.3316 18.662 67.0441 20.4248C66.586 19.7329 66.1253 19.0374 65.6622 18.338C68.5015 15.8985 71.5761 13.7897 74.8636 12.027C75.3267 12.7263 75.7874 13.4219 76.2455 14.1137Z" fill="#2F2F2F"/>
<path d="M67.689 18.5631C68.8585 20.2963 68.4018 22.6729 66.6501 23.8571C64.8983 25.0414 62.5253 24.5778 61.3559 22.8446C60.1789 21.1003 60.6356 18.7237 62.3873 17.5394C64.139 16.3551 66.5121 16.8187 67.689 18.5631Z" fill="#2F2F2F"/>
<path d="M80.5601 9.6185C81.7296 11.3517 81.2729 13.7283 79.5212 14.9126C77.7694 16.0968 75.3964 15.6333 74.227 13.9001C73.05 12.1557 73.5067 9.7791 75.2584 8.5948C77.0101 7.4105 79.3832 7.8741 80.5601 9.6185Z" fill="#2F2F2F"/>
<path d="M62.5899 20.3142C62.4881 21.2295 62.2187 21.4603 61.836 21.4748C61.3744 21.4937 61.0123 21.0058 61.1369 20.1727C61.2541 19.3772 61.7104 18.9386 62.1838 19.0583C62.5257 19.1529 62.7033 19.4887 62.5899 20.3142Z" fill="white"/>
<path d="M75.417 11.4008C75.3152 12.3162 75.0346 12.5546 74.6518 12.5691C74.2015 12.5804 73.8394 12.0925 73.9528 11.267C74.07 10.4715 74.5375 10.0253 74.9996 10.1526C75.3528 10.2396 75.5191 10.583 75.417 11.4008Z" fill="white"/>
<path d="M122.349 17.6156C119.075 15.8303 115.998 13.6848 113.139 11.1947C113.563 10.4743 113.99 9.7499 114.419 9.0216C117.692 10.8069 120.77 12.9524 123.628 15.4425C123.2 16.1708 122.773 16.8952 122.349 17.6156Z" fill="#2F2F2F"/>
<path d="M115.362 10.7809C114.24 12.54 111.855 13.0342 110.041 11.8616C108.227 10.6891 107.681 8.3007 108.803 6.5416C109.932 4.7711 112.317 4.2769 114.131 5.4495C115.945 6.6221 116.491 9.0105 115.362 10.7809Z" fill="#2F2F2F"/>
<path d="M127.958 20.1069C126.836 21.8659 124.452 22.3602 122.638 21.1876C120.824 20.015 120.278 17.6266 121.4 15.8675C122.529 14.0971 124.913 13.6029 126.728 14.7754C128.542 15.948 129.088 18.3364 127.958 20.1069Z" fill="#2F2F2F"/>
<path d="M111.893 6.69659C111.004 6.95579 110.679 6.7945 110.509 6.4442C110.301 6.0223 110.604 5.4971 111.427 5.2909C112.212 5.0924 112.805 5.34709 112.889 5.83349C112.942 6.18789 112.704 6.48289 111.893 6.69659Z" fill="white"/>
<path d="M124.448 15.9899C123.559 16.2491 123.222 16.0803 123.052 15.73C122.856 15.3157 123.159 14.7904 123.97 14.5767C124.755 14.3782 125.36 14.6405 125.432 15.1193C125.497 15.4812 125.247 15.7687 124.448 15.9899Z" fill="white"/>
<path d="M78.1373 26.9381C77.8084 24.857 77.8487 21.7019 79.1202 20.0096C81.3234 17.1161 84.5037 13.6795 88.6233 14.8339C91.5976 15.677 94.1761 16.9007 96.0789 17.9875C98.4035 19.2911 101.246 19.2948 103.567 17.9638C106.963 16.0206 110.9 16.9363 113.112 20.167C113.482 20.6903 113.559 21.0676 113.819 21.648C115.541 25.4831 108.845 44.251 105.752 55.2202C102.667 66.2032 104.695 81.4907 104.812 81.7593C104.929 82.028 106.777 85.7849 102.997 84.1741C99.2248 82.577 92.5127 72.1398 86.4196 56.2814C83.5705 48.8605 78.9625 32.0781 78.1373 26.9381Z" fill="#900B21"/>
<path d="M119.31 -3.05272C116.889 -5.8049 112.823 -6.83076 109.195 -6.02954C105.546 -5.23496 102.348 -2.79184 100.212 0.2846C98.8685 2.2203 97.6265 4.7244 96.9691 7.2083C96.7999 7.8963 96.1628 8.3561 95.4595 8.3157C93.0642 8.2184 91.2337 8.2659 91.0806 8.2744C91.0806 8.2744 91.0737 8.2722 91.0597 8.2678L89.9402 8.4378C87.2838 8.8167 84.9845 10.461 83.7904 12.8548C83.7217 12.9928 83.869 13.1421 84.0216 13.065C85.4923 12.3559 90.2258 10.4106 93.7527 12.9998C97.9723 16.0822 99.4923 17.3966 103.147 16.4441C106.579 15.5353 107.284 13.8192 109.815 14.3816C109.968 14.4074 110.092 14.2413 109.987 14.1053C109.271 13.2281 107.487 11.1001 106.347 10.3853C105.236 9.6908 103.506 9.2226 101.603 8.8935C101.108 8.8166 100.729 8.3885 100.754 7.8942C100.909 4.3386 102.546 0.533499 105.581 -1.41384C109.025 -3.61952 113.122 -3.98677 116.64 -1.75427C117.29 -1.34287 117.934 -0.8765 118.418 -0.27804C118.924 0.3613 119.271 1.2357 119.479 2.0087C119.843 3.2534 119.889 4.8652 118.635 5.6542C118.08 6.0033 117.321 5.991 116.762 5.6884C116.308 5.4533 115.718 5.6998 115.534 6.189C115.377 6.5955 115.478 7.1638 115.89 7.2485C122.973 8.7285 122.56 0.6235 119.31 -3.05272Z" fill="#28594A"/>
<path d="M73.0312 19.4427C72.6326 19.7077 72.1275 19.667 71.8101 19.338L68.7789 15.7231L70.1236 14.6819L73.1548 18.2968C73.4751 18.6649 73.3853 19.1419 73.0312 19.4427Z" fill="#7D7C7C"/>
<path d="M71.747 20.36C71.3484 20.6249 70.8433 20.5843 70.5259 20.2552L67.4947 16.6403L68.8394 15.5992L71.8706 19.2141C72.191 19.5821 72.1011 20.0592 71.747 20.36Z" fill="#7D7C7C"/>
<path d="M74.2567 18.5831C73.9104 18.8468 73.3789 18.8072 73.0693 18.4736L69.973 14.5826L71.2801 13.5733L74.3735 17.4249C74.686 17.7979 74.6 18.28 74.2567 18.5831Z" fill="#7D7C7C"/>
<path d="M74.908 17.2341C74.5717 17.5453 74.0461 17.4619 73.7804 17.1141L73.0292 16.1487L71.1327 13.7571L70.9128 13.4875L71.7383 12.7721C71.8503 12.8455 71.9623 12.9188 72.0743 12.9922C72.2148 13.0906 72.3554 13.1891 72.4959 13.2875C72.6649 13.4111 72.8339 13.5347 73.003 13.6583C73.174 13.8089 73.3451 13.9596 73.5161 14.1102L75.0614 16.0786C75.3271 16.4265 75.2871 16.9607 74.908 17.2341Z" fill="#7D7C7C"/>
<path d="M118.014 16.5651L118.017 16.6042C118.406 16.8108 118.851 16.6597 119.075 16.3288L121.214 12.7526L119.871 11.989L117.732 15.5652C117.511 15.9351 117.628 16.3976 118.014 16.5651Z" fill="#7D7C7C"/>
<path d="M116.452 16.1998C116.861 16.4044 117.325 16.2914 117.573 15.9201L119.872 11.9071L118.471 11.0711L116.172 15.084C115.927 15.4943 116.08 15.9533 116.452 16.1998Z" fill="#7D7C7C"/>
<path d="M115.137 15.5298C115.518 15.7391 116.038 15.621 116.295 15.2451L118.779 10.9374L117.336 10.1334L114.849 14.4018C114.596 14.8171 114.752 15.281 115.137 15.5298Z" fill="#7D7C7C"/>
<path d="M114.038 14.3116C114.417 14.5693 114.924 14.4089 115.175 14.0224L115.774 12.9562L117.255 10.3124L117.432 10.0131L116.51 9.4283C116.41 9.5174 116.31 9.6066 116.21 9.6958C116.086 9.814 115.961 9.9323 115.837 10.0505C115.688 10.1978 115.539 10.3451 115.391 10.4924C115.244 10.6668 115.11 10.8402 114.99 11.0127L113.714 13.1917C113.503 13.5752 113.622 14.0975 114.038 14.3116Z" fill="#7D7C7C"/>
</g>
</g>
<path d="M0 65.1133V51.9595L33.1435 0H44.5403V18.207H37.7953L16.9013 51.1108V51.728H64V65.1133H0ZM38.1054 79V61.1016L38.4155 55.2769V0H54.1539V79H38.1054Z" fill="#141416"/>
<path d="M132 65.1133V51.9595L165.144 0H176.54V18.207H169.795L148.901 51.1108V51.728H196V65.1133H132ZM170.105 79V61.1016L170.416 55.2769V0H186.154V79H170.105Z" fill="#141416"/>
</g>
<defs>
<clipPath id="clip0_1_105">
<rect width="196" height="79" fill="white"/>
</clipPath>
<clipPath id="clip1_1_105">
<rect width="98" height="98" fill="white" transform="translate(49 -10)"/>
</clipPath>
</defs>
</svg>
