<svg width="540" height="142" viewBox="0 0 540 142" fill="none" xmlns="http://www.w3.org/2000/svg">
<path d="M15.5678 0.257098C21.4405 0.257098 27.0901 1.24206 32.5167 3.212C37.9805 5.18193 42.8496 8.32268 47.1239 12.6342C51.4355 16.9458 54.8364 22.6697 57.3267 29.8061C59.8542 36.9053 61.1365 45.6213 61.1737 55.9542C61.1737 65.6552 60.0772 74.3155 57.8842 81.935C55.7285 89.5174 52.6249 95.9661 48.5735 101.281C44.5221 106.596 39.6345 110.648 33.9105 113.435C28.1866 116.186 21.7936 117.561 14.7315 117.561C7.11198 117.561 0.384471 116.093 -5.45099 113.157C-11.2865 110.183 -15.9883 106.15 -19.5565 101.058C-23.0875 95.929 -25.2247 90.1678 -25.968 83.7749H-2.16158C-1.23236 87.9377 0.718988 91.1714 3.69247 93.4759C6.66596 95.7431 10.3456 96.8768 14.7315 96.8768C22.1652 96.8768 27.8149 93.6431 31.6804 87.1758C35.5459 80.6713 37.4973 71.7694 37.5344 60.4702H36.7539C35.0442 63.8153 32.7397 66.6959 29.8406 69.1119C26.9414 71.4906 23.6148 73.3305 19.8608 74.6314C16.1439 75.9323 12.1855 76.5827 7.98544 76.5827C1.25793 76.5827 -4.74479 75.0031 -10.0227 71.8438C-15.3007 68.6844 -19.4635 64.3357 -22.5114 58.7976C-25.5592 53.2595 -27.0831 46.9408 -27.0831 39.8416C-27.1203 32.1849 -25.3548 25.3645 -21.7866 19.3803C-18.2184 13.3962 -13.2378 8.71295 -6.84481 5.33061C-0.414654 1.9111 7.05623 0.219928 15.5678 0.257098ZM15.7351 19.2131C11.9811 19.2131 8.63589 20.1051 5.69958 21.8892C2.80043 23.6733 0.495976 26.0707 -1.21378 29.0813C-2.88636 32.092 -3.70407 35.4557 -3.6669 39.1726C-3.6669 42.9266 -2.84919 46.3089 -1.21378 49.3196C0.458808 52.2931 2.72609 54.6719 5.58807 56.456C8.48722 58.2029 11.7952 59.0763 15.5121 59.0763C18.2997 59.0763 20.8829 58.556 23.2617 57.5153C25.6405 56.4745 27.7034 55.0436 29.4503 53.2223C31.2344 51.3639 32.6282 49.2267 33.6318 46.8107C34.6353 44.3948 35.1371 41.8301 35.1371 39.1168C35.0999 35.5115 34.245 32.2035 32.5724 29.1928C30.8999 26.1822 28.5954 23.7662 25.6591 21.945C22.7228 20.1237 19.4148 19.2131 15.7351 19.2131ZM114.034 118.509C104.445 118.472 96.1931 116.112 89.2798 111.428C82.4036 106.745 77.1071 99.9618 73.3902 91.0785C69.7105 82.1952 67.8893 71.5092 67.9264 59.0206C67.9264 46.5691 69.7663 35.9575 73.446 27.1857C77.1628 18.4139 82.4593 11.7422 89.3355 7.17046C96.2489 2.56155 104.482 0.257098 114.034 0.257098C123.586 0.257098 131.801 2.56155 138.677 7.17046C145.59 11.7794 150.905 18.4697 154.622 27.2415C158.339 35.9761 160.179 46.5691 160.142 59.0206C160.142 71.5464 158.283 82.2509 154.566 91.1342C150.887 100.018 145.609 106.801 138.733 111.484C131.856 116.167 123.624 118.509 114.034 118.509ZM114.034 98.4936C120.576 98.4936 125.798 95.2042 129.701 88.6254C133.603 82.0465 135.536 72.1783 135.499 59.0206C135.499 50.3603 134.607 43.1496 132.823 37.3885C131.076 31.6274 128.586 27.2972 125.352 24.3981C122.155 21.4989 118.383 20.0494 114.034 20.0494C107.53 20.0494 102.326 23.3016 98.4232 29.8061C94.5205 36.3106 92.5506 46.0488 92.5134 59.0206C92.5134 67.7924 93.3869 75.1146 95.1338 80.9872C96.9179 86.8227 99.4268 91.2086 102.66 94.1449C105.894 97.044 109.685 98.4936 114.034 98.4936ZM189.955 141.089V97.1555H196.534C198.429 95.9661 199.953 94.0705 201.105 91.4688C202.295 88.867 203.261 85.8005 204.005 82.2695C204.785 78.7385 205.38 74.9287 205.789 70.8402C206.235 66.7145 206.625 62.5516 206.96 58.3516L209.19 30.3636H274.866V97.1555H288.136V141.089H265.5V116H213.148V141.089H189.955ZM220.173 97.1555H252.454V48.6506H229.372L228.48 58.3516C227.848 67.495 226.938 75.2633 225.748 81.6562C224.559 88.0121 222.7 93.1785 220.173 97.1555ZM352.941 63.7038V82.381H308.227V63.7038H352.941ZM316.033 30.3636V116H293.341V30.3636H316.033ZM367.827 30.3636V116H345.303V30.3636H367.827ZM416.645 117.673C407.836 117.673 400.254 115.888 393.898 112.32C387.58 108.715 382.711 103.623 379.291 97.044C375.872 90.428 374.162 82.604 374.162 73.5721C374.162 64.7631 375.872 57.0321 379.291 50.3789C382.711 43.7257 387.524 38.5407 393.731 34.8239C399.975 31.107 407.298 29.2486 415.698 29.2486C421.347 29.2486 426.607 30.1592 431.476 31.9805C436.382 33.7646 440.656 36.4593 444.299 40.0646C447.979 43.67 450.84 48.2045 452.885 53.6683C454.929 59.0949 455.951 65.4508 455.951 72.7358V79.2589H383.64V64.5401H433.594C433.594 61.1206 432.851 58.0914 431.364 55.4524C429.877 52.8134 427.815 50.7506 425.176 49.2638C422.574 47.7399 419.545 46.978 416.088 46.978C412.483 46.978 409.286 47.8143 406.498 49.4869C403.748 51.1223 401.592 53.3338 400.031 56.1214C398.47 58.8719 397.671 61.9383 397.634 65.3207V79.3146C397.634 83.5518 398.414 87.2129 399.975 90.2979C401.574 93.3829 403.822 95.7617 406.721 97.4343C409.621 99.1069 413.059 99.9432 417.036 99.9432C419.675 99.9432 422.091 99.5715 424.284 98.8281C426.477 98.0848 428.354 96.9697 429.915 95.483C431.476 93.9962 432.665 92.175 433.483 90.0192L455.449 91.4688C454.334 96.7467 452.048 101.356 448.592 105.295C445.172 109.198 440.749 112.246 435.323 114.439C429.933 116.595 423.707 117.673 416.645 117.673ZM485.507 84.6669L516.338 30.3636H539.754V116H517.119V61.5295L486.399 116H462.815V30.3636H485.507V84.6669ZM512.268 0.480107H528.827C528.79 7.24479 526.281 12.69 521.3 16.8157C516.357 20.9414 509.666 23.0043 501.229 23.0043C492.755 23.0043 486.046 20.9414 481.102 16.8157C476.159 12.69 473.687 7.24479 473.687 0.480107H490.134C490.097 3.04474 490.915 5.34919 492.587 7.39346C494.297 9.43774 497.178 10.4599 501.229 10.4599C505.169 10.4599 507.994 9.45632 509.704 7.44922C511.413 5.44211 512.268 3.11907 512.268 0.480107Z" fill="#141416" fill-opacity="0.03"/>
</svg>
