<svg width="75" height="75" viewBox="0 0 75 75" fill="none" xmlns="http://www.w3.org/2000/svg">
<circle cx="37.5" cy="37.5" r="37" stroke="#900B21"/>
<path d="M54.553 19.9978C57.0985 20.3363 59 22.4669 59 24.9759V28.2913C59 53.0721 43.5223 59.7627 38.5335 61.276C37.5316 61.5747 36.4684 61.5747 35.4665 61.276C30.4675 59.7627 15 53.0721 15 28.2913V24.9958C15 22.4868 16.9015 20.3363 19.4572 20.0078C26.184 19.1416 31.1422 16.4634 34.0455 14.4423C35.8243 13.2077 38.2165 13.1779 40.0158 14.4025C42.9805 16.4136 47.9898 19.1018 54.553 19.9978Z" fill="#900B21"/>
<path d="M33.3275 48.1667C32.6405 48.1667 31.9835 47.8972 31.4957 47.4081L26.4286 42.3278C25.4131 41.3097 25.4131 39.6629 26.4286 38.6448C27.444 37.6267 29.0866 37.6267 30.102 38.6448L33.0786 41.6291L43.6808 27.8453C44.5568 26.7075 46.1895 26.4979 47.3243 27.3762C48.4592 28.2545 48.6683 29.8914 47.7922 31.0293L35.3882 47.1486C34.9302 47.7475 34.2433 48.1168 33.4967 48.1567C33.437 48.1634 33.3805 48.1667 33.3275 48.1667Z" fill="white"/>
</svg>
