<svg width="30" height="30" viewBox="0 0 30 30" fill="none" xmlns="http://www.w3.org/2000/svg">
<path d="M14.9999 2.71001C18.9758 2.71001 19.5181 2.71001 21.1445 2.71001C22.5902 2.71001 23.3132 3.07151 23.8553 3.25301C24.5781 3.61451 25.1204 3.79449 25.6625 4.33749C26.2047 4.87899 26.5661 5.4205 26.7468 6.1435C26.9276 6.6865 27.1083 7.40947 27.2891 8.85546C27.2891 10.4815 27.2891 10.843 27.2891 14.9994C27.2891 19.1559 27.2891 19.5174 27.2891 21.1434C27.2891 21.9083 27.1879 22.4709 27.0659 22.9115C26.9769 23.2327 26.9324 23.3934 26.7978 23.7353C26.6632 24.0772 26.5461 24.3022 26.3118 24.7522C26.144 25.0745 25.9563 25.368 25.6625 25.6614C25.1204 26.2044 24.5781 26.5659 23.8553 26.7459C23.3132 26.9274 22.5902 27.1074 21.1445 27.2889C19.5181 27.2889 19.1566 27.2889 14.9999 27.2889C10.8433 27.2889 10.482 27.2889 8.85536 27.2889C7.40967 27.2889 6.68667 26.9274 6.14458 26.7459C5.42173 26.3844 4.87948 26.2044 4.33738 25.6614C3.79514 25.1199 3.43379 24.5784 3.25304 23.8554C3.07229 23.3124 2.89154 22.5894 2.71079 21.1434C2.71079 19.5174 2.71079 19.1559 2.71079 14.9994C2.71079 10.843 2.71079 10.4815 2.71079 8.85546C2.71079 8.09059 2.81194 7.52802 2.93398 7.08737C3.02294 6.76615 3.06742 6.60554 3.20204 6.26362C3.33666 5.92171 3.45378 5.69672 3.68803 5.24674C3.85583 4.9244 4.04353 4.63094 4.33738 4.33749C4.87948 3.79449 5.42173 3.43301 6.14458 3.25301C6.68667 3.07151 7.40967 2.89151 8.85536 2.71001C10.482 2.71001 11.0241 2.71001 14.9999 2.71001ZM14.9999 -0.000488281C10.8433 -0.000488281 10.482 -0.000488281 8.85536 -0.000488281C7.22892 -0.000488281 6.14457 0.361002 5.24098 0.722501C4.33738 1.084 3.43378 1.62552 2.53004 2.53002C1.62644 3.43301 1.26509 4.15598 0.722846 5.24047C0.361497 6.14347 0.180749 7.22797 0 8.85546C0 10.4815 0 11.023 0 14.9994C0 19.1559 0 19.5174 0 21.1434C0 22.7709 0.361497 23.8554 0.722846 24.7584C1.08434 25.6614 1.62644 26.5659 2.53004 27.4689C3.43378 28.3734 4.15663 28.7349 5.24098 29.2764C6.14457 29.6379 7.22892 29.8194 8.85536 29.9994C10.482 29.9994 11.0241 29.9994 14.9999 29.9994C18.9758 29.9994 19.5181 29.9994 21.1445 29.9994C22.771 29.9994 23.8553 29.6379 24.7589 29.2764C25.6625 28.9149 26.5661 28.3734 27.4698 27.4689C28.3734 26.5659 28.7348 25.8429 29.277 24.7584C29.6384 23.8554 29.8191 22.7709 29.9999 21.1434C29.9999 19.5174 29.9999 18.9759 29.9999 14.9994C29.9999 11.023 29.9999 10.4815 29.9999 8.85546C29.9999 7.22797 29.6384 6.14347 29.277 5.24047C28.9155 4.33748 28.3734 3.43301 27.4698 2.53002C26.5661 1.62552 25.8432 1.264 24.7589 0.722501C23.8553 0.361002 22.771 0.179511 21.1445 -0.000488281C19.5181 -0.000488281 19.1566 -0.000488281 14.9999 -0.000488281Z" fill="#FCF9F4"/>
<path d="M15.0015 7.23193C10.6641 7.23193 7.23047 10.6654 7.23047 15.0034C7.23047 19.3414 10.6641 22.7749 15.0015 22.7749C19.3389 22.7749 22.7725 19.3414 22.7725 15.0034C22.7725 10.6654 19.3389 7.23193 15.0015 7.23193ZM15.0015 20.0629C12.2907 20.0629 9.94125 17.8954 9.94125 15.0034C9.94125 12.2929 12.1099 9.94394 15.0015 9.94394C17.7123 9.94394 20.0617 12.1114 20.0617 15.0034C20.0617 17.7139 17.7123 20.0629 15.0015 20.0629Z" fill="#FCF9F4"/>
</svg>
