<svg width="14" height="15" viewBox="0 0 14 15" fill="none" xmlns="http://www.w3.org/2000/svg">
<path d="M11.3602 6.82764H2.29502C1.5798 6.82764 1 7.391 1 8.08596V12.4901C1 13.185 1.38851 14.0001 2.68352 14.0001H11.3602C12.6552 14.0001 12.6552 13.185 12.6552 12.4901V8.08596C12.6552 7.391 12.0754 6.82764 11.3602 6.82764Z" fill="#900B21" stroke="#900B21" stroke-linecap="round" stroke-linejoin="round"/>
<path d="M3.68945 6.82759V4.23755C3.68945 3.3789 4.02006 2.55541 4.60853 1.94826C5.19701 1.3411 5.99515 1 6.82738 1C7.65962 1 8.45776 1.3411 9.04624 1.94826C9.63471 2.55541 9.96532 3.3789 9.96532 4.23755V6.82759" stroke="#900B21" stroke-linecap="round" stroke-linejoin="round"/>
<circle cx="6.82722" cy="9.51716" r="0.896552" fill="white"/>
<rect x="6.37891" y="9.96558" width="0.896552" height="2.24138" fill="white"/>
</svg>
