<svg width="149" height="17" viewBox="0 0 149 17" fill="none" xmlns="http://www.w3.org/2000/svg">
<path d="M0.566939 1.45455H4.35955L8.36523 11.2273H8.53569L12.5414 1.45455H16.334V16H13.351V6.53267H13.2303L9.46609 15.929H7.43484L3.67063 6.49716H3.54989V16H0.566939V1.45455ZM20.8217 16.206C20.1257 16.206 19.5054 16.0852 18.9609 15.8438C18.4164 15.5975 17.9855 15.2353 17.6683 14.7571C17.3558 14.2741 17.1995 13.6728 17.1995 12.9531C17.1995 12.3471 17.3108 11.8381 17.5333 11.4261C17.7559 11.0142 18.0589 10.6828 18.4424 10.4318C18.826 10.1809 19.2616 9.99148 19.7493 9.86364C20.2417 9.7358 20.7578 9.64583 21.2975 9.59375C21.932 9.52746 22.4434 9.46591 22.8316 9.40909C23.2199 9.34754 23.5016 9.25758 23.6768 9.1392C23.852 9.02083 23.9396 8.84564 23.9396 8.61364V8.57102C23.9396 8.12121 23.7975 7.7732 23.5135 7.52699C23.2341 7.28078 22.8364 7.15767 22.3203 7.15767C21.7758 7.15767 21.3425 7.27841 21.0206 7.51989C20.6986 7.75663 20.4855 8.05492 20.3814 8.41477L17.5831 8.1875C17.7251 7.52462 18.0045 6.9517 18.4211 6.46875C18.8378 5.98106 19.3752 5.60701 20.0333 5.34659C20.6962 5.08144 21.4633 4.94886 22.3345 4.94886C22.9405 4.94886 23.5206 5.01989 24.0745 5.16193C24.6333 5.30398 25.128 5.52415 25.5589 5.82244C25.9945 6.12074 26.3378 6.50426 26.5887 6.97301C26.8397 7.43703 26.9652 7.99337 26.9652 8.64205V16H24.0958V14.4872H24.0106C23.8354 14.8281 23.6011 15.1288 23.3075 15.3892C23.0139 15.6449 22.6612 15.8461 22.2493 15.9929C21.8373 16.1349 21.3615 16.206 20.8217 16.206ZM21.6882 14.1179C22.1333 14.1179 22.5262 14.0303 22.8672 13.8551C23.2081 13.6752 23.4756 13.4337 23.6697 13.1307C23.8638 12.8277 23.9609 12.4844 23.9609 12.1009V10.9432C23.8662 11.0047 23.736 11.0616 23.5703 11.1136C23.4093 11.161 23.227 11.206 23.0234 11.2486C22.8198 11.2865 22.6162 11.322 22.4126 11.3551C22.209 11.3835 22.0243 11.4096 21.8586 11.4332C21.5035 11.4853 21.1934 11.5682 20.9282 11.6818C20.6631 11.7955 20.4571 11.9493 20.3103 12.1435C20.1636 12.3329 20.0902 12.5696 20.0902 12.8537C20.0902 13.2656 20.2393 13.5805 20.5376 13.7983C20.8406 14.0114 21.2242 14.1179 21.6882 14.1179ZM31.238 9.69318V16H28.2125V5.09091H31.096V7.01562H31.2238C31.4653 6.38116 31.8701 5.87926 32.4383 5.50994C33.0065 5.13589 33.6954 4.94886 34.5051 4.94886C35.2627 4.94886 35.9232 5.11458 36.4866 5.44602C37.0501 5.77746 37.488 6.25095 37.8005 6.86648C38.113 7.47727 38.2693 8.20644 38.2693 9.05398V16H35.2437V9.59375C35.2484 8.92614 35.078 8.4053 34.7324 8.03125C34.3867 7.65246 33.9109 7.46307 33.3048 7.46307C32.8976 7.46307 32.5377 7.55066 32.2252 7.72585C31.9175 7.90104 31.676 8.15672 31.5008 8.4929C31.3304 8.82434 31.2428 9.22443 31.238 9.69318ZM121.451 6.54688H118.34C118.283 6.14441 118.167 5.78693 117.992 5.47443C117.817 5.1572 117.592 4.88731 117.317 4.66477C117.043 4.44223 116.725 4.27178 116.366 4.15341C116.01 4.03504 115.625 3.97585 115.208 3.97585C114.455 3.97585 113.799 4.16288 113.241 4.53693C112.682 4.90625 112.249 5.44602 111.941 6.15625C111.633 6.86174 111.479 7.71875 111.479 8.72727C111.479 9.7642 111.633 10.6354 111.941 11.3409C112.253 12.0464 112.689 12.5791 113.248 12.9389C113.806 13.2988 114.453 13.4787 115.187 13.4787C115.598 13.4787 115.98 13.4242 116.33 13.3153C116.685 13.2064 117 13.0478 117.275 12.8395C117.549 12.6264 117.777 12.3684 117.956 12.0653C118.141 11.7623 118.269 11.4167 118.34 11.0284L121.451 11.0426C121.37 11.7102 121.169 12.3542 120.847 12.9744C120.53 13.59 120.101 14.1416 119.562 14.6293C119.027 15.1122 118.387 15.4957 117.644 15.7798C116.905 16.0592 116.07 16.1989 115.137 16.1989C113.839 16.1989 112.679 15.9053 111.657 15.3182C110.639 14.7311 109.834 13.8812 109.242 12.7685C108.655 11.6558 108.361 10.3087 108.361 8.72727C108.361 7.1411 108.66 5.79167 109.256 4.67898C109.853 3.56629 110.662 2.71875 111.685 2.13636C112.708 1.54924 113.858 1.25568 115.137 1.25568C115.98 1.25568 116.761 1.37405 117.481 1.6108C118.205 1.84754 118.847 2.19318 119.405 2.64773C119.964 3.09754 120.419 3.64915 120.769 4.30256C121.124 4.95597 121.351 5.70407 121.451 6.54688ZM125.525 1.45455V16H122.499V1.45455H125.525ZM133.844 11.3551V5.09091H136.87V16H133.965V14.0185H133.851C133.605 14.6577 133.195 15.1714 132.623 15.5597C132.054 15.9479 131.361 16.142 130.542 16.142C129.812 16.142 129.171 15.9763 128.617 15.6449C128.063 15.3134 127.63 14.8423 127.317 14.2315C127.009 13.6207 126.853 12.8892 126.848 12.0369V5.09091H129.874V11.4972C129.879 12.1411 130.052 12.6501 130.392 13.0241C130.733 13.3982 131.19 13.5852 131.763 13.5852C132.128 13.5852 132.469 13.5024 132.786 13.3366C133.103 13.1662 133.359 12.9152 133.553 12.5838C133.752 12.2524 133.849 11.8428 133.844 11.3551ZM138.247 16V1.45455H141.272V6.9233H141.365C141.497 6.62973 141.689 6.33144 141.94 6.02841C142.195 5.72064 142.527 5.46496 142.934 5.26136C143.346 5.05303 143.857 4.94886 144.468 4.94886C145.264 4.94886 145.998 5.1572 146.67 5.57386C147.342 5.9858 147.88 6.60843 148.282 7.44176C148.685 8.27036 148.886 9.30966 148.886 10.5597C148.886 11.7765 148.689 12.804 148.296 13.642C147.908 14.4754 147.378 15.1075 146.705 15.5384C146.038 15.9645 145.29 16.1776 144.461 16.1776C143.874 16.1776 143.374 16.0805 142.963 15.8864C142.555 15.6922 142.222 15.4484 141.961 15.1548C141.701 14.8565 141.502 14.5559 141.365 14.2528H141.23V16H138.247ZM141.208 10.5455C141.208 11.1941 141.298 11.7599 141.478 12.2429C141.658 12.7259 141.919 13.1023 142.259 13.3722C142.6 13.6373 143.015 13.7699 143.502 13.7699C143.995 13.7699 144.411 13.6349 144.752 13.3651C145.093 13.0904 145.351 12.7116 145.526 12.2287C145.706 11.741 145.796 11.1799 145.796 10.5455C145.796 9.91572 145.709 9.36174 145.534 8.88352C145.358 8.4053 145.1 8.03125 144.759 7.76136C144.419 7.49148 143.999 7.35653 143.502 7.35653C143.01 7.35653 142.593 7.48674 142.252 7.74716C141.916 8.00758 141.658 8.37689 141.478 8.85511C141.298 9.33333 141.208 9.89678 141.208 10.5455Z" fill="#141416"/>
<path d="M39.6107 16V1.45455H42.686V7.45597H48.9289V1.45455H51.9971V16H48.9289V9.99148H42.686V16H39.6107ZM58.3047 16.2131C57.2015 16.2131 56.2474 15.9787 55.4425 15.5099C54.6423 15.0365 54.0244 14.3783 53.5888 13.5355C53.1532 12.688 52.9354 11.7055 52.9354 10.5881C52.9354 9.46117 53.1532 8.47633 53.5888 7.63352C54.0244 6.78598 54.6423 6.12784 55.4425 5.65909C56.2474 5.18561 57.2015 4.94886 58.3047 4.94886C59.4079 4.94886 60.3596 5.18561 61.1598 5.65909C61.9648 6.12784 62.585 6.78598 63.0206 7.63352C63.4562 8.47633 63.674 9.46117 63.674 10.5881C63.674 11.7055 63.4562 12.688 63.0206 13.5355C62.585 14.3783 61.9648 15.0365 61.1598 15.5099C60.3596 15.9787 59.4079 16.2131 58.3047 16.2131ZM58.3189 13.8693C58.8208 13.8693 59.2399 13.7273 59.576 13.4432C59.9122 13.1544 60.1655 12.7614 60.336 12.2642C60.5112 11.767 60.5988 11.2012 60.5988 10.5668C60.5988 9.93229 60.5112 9.36648 60.336 8.86932C60.1655 8.37216 59.9122 7.97917 59.576 7.69034C59.2399 7.40151 58.8208 7.2571 58.3189 7.2571C57.8123 7.2571 57.3862 7.40151 57.0405 7.69034C56.6996 7.97917 56.4416 8.37216 56.2664 8.86932C56.0959 9.36648 56.0107 9.93229 56.0107 10.5668C56.0107 11.2012 56.0959 11.767 56.2664 12.2642C56.4416 12.7614 56.6996 13.1544 57.0405 13.4432C57.3862 13.7273 57.8123 13.8693 58.3189 13.8693ZM67.5669 1.45455V16H64.5414V1.45455H67.5669ZM68.8906 16V5.09091H71.9162V16H68.8906ZM70.4105 3.68466C69.9607 3.68466 69.5748 3.53551 69.2528 3.23722C68.9356 2.93419 68.777 2.57197 68.777 2.15057C68.777 1.7339 68.9356 1.37642 69.2528 1.07812C69.5748 0.775094 69.9607 0.623579 70.4105 0.623579C70.8603 0.623579 71.2438 0.775094 71.561 1.07812C71.883 1.37642 72.044 1.7339 72.044 2.15057C72.044 2.57197 71.883 2.93419 71.561 3.23722C71.2438 3.53551 70.8603 3.68466 70.4105 3.68466ZM82.3165 8.2017L79.5466 8.37216C79.4993 8.13542 79.3975 7.92235 79.2412 7.73295C79.085 7.53883 78.879 7.38494 78.6233 7.27131C78.3724 7.15294 78.0717 7.09375 77.7213 7.09375C77.2526 7.09375 76.8572 7.19318 76.5353 7.39205C76.2133 7.58617 76.0523 7.84659 76.0523 8.1733C76.0523 8.43371 76.1565 8.65388 76.3648 8.83381C76.5731 9.01373 76.9306 9.15814 77.4373 9.26705L79.4117 9.66477C80.4723 9.88258 81.263 10.233 81.7838 10.7159C82.3047 11.1989 82.5651 11.8333 82.5651 12.6193C82.5651 13.3343 82.3544 13.9616 81.933 14.5014C81.5163 15.0412 80.9434 15.4626 80.2142 15.7656C79.4898 16.0639 78.6541 16.2131 77.7071 16.2131C76.263 16.2131 75.1124 15.9124 74.2554 15.3111C73.4032 14.705 72.9036 13.8812 72.7569 12.8395L75.7327 12.6832C75.8227 13.1236 76.0405 13.4598 76.3861 13.6918C76.7318 13.919 77.1745 14.0327 77.7142 14.0327C78.2445 14.0327 78.6707 13.9309 78.9927 13.7273C79.3194 13.5189 79.4851 13.2514 79.4898 12.9247C79.4851 12.6501 79.3691 12.4252 79.1418 12.25C78.9145 12.0701 78.5641 11.9328 78.0907 11.8381L76.2015 11.4616C75.1361 11.2486 74.343 10.8793 73.8222 10.3537C73.3061 9.82812 73.048 9.15814 73.048 8.34375C73.048 7.64299 73.2374 7.0393 73.6162 6.53267C73.9998 6.02604 74.5372 5.63542 75.2284 5.3608C75.9245 5.08617 76.7389 4.94886 77.6716 4.94886C79.0495 4.94886 80.1338 5.24006 80.9245 5.82244C81.7199 6.40483 82.1839 7.19792 82.3165 8.2017ZM89.1728 5.09091V7.36364H82.6032V5.09091H89.1728ZM84.0947 2.47727H87.1203V12.6477C87.1203 12.9271 87.1629 13.1449 87.2481 13.3011C87.3333 13.4527 87.4517 13.5592 87.6032 13.6207C87.7595 13.6823 87.9394 13.7131 88.143 13.7131C88.285 13.7131 88.4271 13.7012 88.5691 13.6776C88.7112 13.6491 88.8201 13.6278 88.8958 13.6136L89.3717 15.8651C89.2202 15.9124 89.0071 15.9669 88.7325 16.0284C88.4579 16.0947 88.1241 16.1349 87.7311 16.1491C87.0019 16.1776 86.3627 16.0805 85.8135 15.858C85.2689 15.6354 84.8452 15.2898 84.5421 14.821C84.2391 14.3523 84.09 13.7604 84.0947 13.0455V2.47727ZM90.0437 16V5.09091H93.0693V16H90.0437ZM91.5636 3.68466C91.1138 3.68466 90.7279 3.53551 90.4059 3.23722C90.0887 2.93419 89.9301 2.57197 89.9301 2.15057C89.9301 1.7339 90.0887 1.37642 90.4059 1.07812C90.7279 0.775094 91.1138 0.623579 91.5636 0.623579C92.0134 0.623579 92.3969 0.775094 92.7142 1.07812C93.0361 1.37642 93.1971 1.7339 93.1971 2.15057C93.1971 2.57197 93.0361 2.93419 92.7142 3.23722C92.3969 3.53551 92.0134 3.68466 91.5636 3.68466ZM99.3219 16.2131C98.2045 16.2131 97.2433 15.9763 96.4384 15.5028C95.6382 15.0246 95.0227 14.3617 94.5918 13.5142C94.1657 12.6667 93.9526 11.6913 93.9526 10.5881C93.9526 9.47064 94.168 8.49053 94.5989 7.64773C95.0345 6.80019 95.6524 6.13968 96.4526 5.66619C97.2528 5.18797 98.2045 4.94886 99.3077 4.94886C100.259 4.94886 101.093 5.12169 101.808 5.46733C102.523 5.81297 103.088 6.2983 103.505 6.9233C103.922 7.5483 104.151 8.2822 104.194 9.125H101.339C101.258 8.58049 101.045 8.14252 100.7 7.81108C100.359 7.47491 99.9114 7.30682 99.3574 7.30682C98.8887 7.30682 98.4791 7.43466 98.1287 7.69034C97.7831 7.94129 97.5132 8.30824 97.3191 8.79119C97.1249 9.27415 97.0279 9.8589 97.0279 10.5455C97.0279 11.2415 97.1226 11.8333 97.312 12.321C97.5061 12.8087 97.7783 13.1804 98.1287 13.4361C98.4791 13.6918 98.8887 13.8196 99.3574 13.8196C99.7031 13.8196 100.013 13.7486 100.288 13.6065C100.567 13.4645 100.797 13.2585 100.977 12.9886C101.161 12.714 101.282 12.3849 101.339 12.0014H104.194C104.147 12.8348 103.919 13.5687 103.512 14.2031C103.11 14.8329 102.553 15.3253 101.843 15.6804C101.133 16.0355 100.293 16.2131 99.3219 16.2131Z" fill="#900B21"/>
</svg>
