<svg width="60" height="60" viewBox="0 0 60 60" fill="none" xmlns="http://www.w3.org/2000/svg">
<g clip-path="url(#clip0_452_373)">
<path d="M11.8844 17.5877C12.0971 17.4095 12.4024 17.4383 12.5452 17.641L13.0595 18.3764C13.2023 18.5791 13.1509 18.8781 12.9382 19.0563C12.7234 19.2078 12.4431 19.177 12.3025 19.0009L11.7609 18.241C11.6181 18.0382 11.6695 17.7392 11.8844 17.5877Z" fill="#7D7C7C"/>
<path d="M42.9703 16.6341L42.9937 16.6324C43.1711 16.8103 43.451 16.7894 43.6252 16.6091L43.9502 16.2502C44.0993 16.0478 44.078 15.7626 43.9023 15.6084L43.9005 15.5846C43.7248 15.4305 43.4216 15.4531 43.2707 15.6317L42.9457 15.9906C42.7716 16.1709 42.7946 16.4799 42.9703 16.6341Z" fill="#7D7C7C"/>
<path d="M15.7214 15.3724C14.9172 15.3809 14.1278 15.2594 13.353 15.0078C13.0524 14.9014 12.8801 14.5533 12.9784 14.2365C12.9784 14.2365 12.9865 14.2359 13.0026 14.2347C13.1009 13.918 13.3805 13.7424 13.6568 13.8507C14.3307 14.0582 15.0212 14.1613 15.7284 14.1601C15.9951 14.1402 16.2325 14.3803 16.2574 14.7136C16.2823 15.0469 16.0366 15.3489 15.7214 15.3724Z" fill="#6F6B6B"/>
<path d="M39.7913 13.5749C40.6259 13.461 41.4255 13.2208 42.1901 12.8543C42.4854 12.7033 42.611 12.3329 42.461 12.0347C42.2856 11.7384 41.9692 11.6074 41.6993 11.7565C41.0325 12.0641 40.3326 12.2711 39.5997 12.3774C39.3202 12.3982 39.1107 12.6717 39.1356 13.005C39.1605 13.3384 39.461 13.5995 39.7913 13.5749Z" fill="#6F6B6B"/>
<path d="M15.0118 14.7977C14.9941 15.2185 14.8767 15.6221 14.7104 16.0294C14.5682 16.3196 14.3928 16.6042 14.1842 16.883C14.11 16.9872 14.0277 17.0921 13.9372 17.1975C13.2135 18.0412 12.1665 18.8351 10.9973 19.638L8.90392 18.9307L10.3838 15.0446C10.9761 14.0874 11.6557 13.6418 12.3647 13.5888C12.4462 13.5827 12.5277 13.5766 12.6092 13.5706C12.6092 13.5706 12.618 13.5781 12.6355 13.5933C12.7007 13.5884 12.7746 13.5911 12.8574 13.6014C12.9075 13.6141 12.9657 13.6262 13.0322 13.6377C13.0823 13.6504 13.1324 13.6631 13.1825 13.6758C13.2326 13.6885 13.2834 13.7094 13.3347 13.7385C13.3685 13.7524 13.4105 13.7657 13.4606 13.7784C13.6122 13.8329 13.765 13.9037 13.919 13.991C13.9879 14.0352 14.0567 14.0794 14.1256 14.1236C14.212 14.1829 14.2984 14.2423 14.3847 14.3016C14.4886 14.3761 14.5925 14.4506 14.6964 14.5251C14.8016 14.616 14.9067 14.7068 15.0118 14.7977Z" fill="#7D7C7C"/>
<path d="M40.3799 12.9029C40.4362 13.3182 40.6163 13.6996 40.8719 14.0753C41.0435 14.3422 41.2564 14.5977 41.5106 14.8419C41.6018 14.9338 41.7013 15.0251 41.8092 15.1158C42.6723 15.841 43.8568 16.4681 45.167 17.0859L47.1896 16.0711L45.1241 12.4499C44.3524 11.5945 43.594 11.2563 42.8649 11.3108C42.7811 11.317 42.6973 11.3233 42.6135 11.3295C42.6135 11.3295 42.6057 11.3383 42.5902 11.356C42.5231 11.361 42.4483 11.3748 42.3657 11.3974C42.3167 11.4175 42.2676 11.4376 42.2186 11.4577C42.1527 11.4791 42.0953 11.4998 42.0462 11.52C41.9972 11.5401 41.9487 11.5684 41.9009 11.6048C41.8686 11.6237 41.8363 11.6426 41.804 11.6614C41.6413 11.7394 41.4882 11.8331 41.3447 11.9425C41.2813 11.9966 41.2179 12.0507 41.1545 12.1048C41.0756 12.1765 40.9967 12.2482 40.9178 12.3199C40.8233 12.4092 40.7289 12.4985 40.6344 12.5878C40.5412 12.6935 40.4563 12.7985 40.3799 12.9029Z" fill="#7D7C7C"/>
<path d="M15.017 14.8647C14.9989 15.2793 14.8816 15.6771 14.7156 16.0785C14.5736 16.3646 14.3986 16.6451 14.1905 16.9199C14.1165 17.0227 14.0343 17.1261 13.9441 17.2301C13.2222 18.0619 12.1782 18.8449 11.0123 19.637C10.2407 18.1631 11.4824 17.0736 12.4659 15.8089C12.8179 15.2721 13.1806 14.8803 13.556 14.6578C13.8213 14.4921 14.1001 14.3983 14.3925 14.3765C14.496 14.4498 14.5994 14.5231 14.7029 14.5964C14.8076 14.6859 14.9123 14.7753 15.017 14.8647Z" fill="#6F6B6B"/>
<path d="M40.3854 12.9699C40.4415 13.379 40.6224 13.7544 40.8794 14.1242C41.0519 14.3869 41.266 14.6383 41.5218 14.8785C41.6135 14.9689 41.7136 15.0587 41.8222 15.1478C42.6909 15.8609 43.8836 16.4768 45.2031 17.0833C45.7735 15.5091 44.3311 14.62 43.1276 13.5187C42.6842 13.0413 42.2517 12.7089 41.8318 12.5458C41.5337 12.4222 41.2327 12.3717 40.9286 12.3945C40.8332 12.4826 40.7379 12.5708 40.6425 12.6589C40.5484 12.7632 40.4627 12.8669 40.3854 12.9699Z" fill="#6F6B6B"/>
<path d="M50.9853 27.5475C48.3204 30.0181 45.5104 32.2032 41.4619 31.7401C40.9405 33.384 37.4807 34.021 36.8351 35.3285C33.3761 34.6953 32.4602 36.4382 32.1203 36.9739C30.8798 38.943 31.4829 42.1937 31.6079 44.53L31.8149 46.2398C29.5876 47.2704 32.5886 47.2912 30.2971 47.4623C27.981 47.6353 28.1951 46.9266 25.8394 46.2384L25.3378 45.2028C25.1253 43.0212 24.5432 41.944 23.1773 40.2436C25.1438 40.7098 25.5021 39.3514 22.4444 39.1441C22.0287 38.6648 23.253 38.2825 22.864 37.719C22.0313 36.5219 20.7083 36.1192 16.8962 33.5748C15.3905 33.9836 14.0034 33.9884 12.6928 33.6913C10.6037 33.2547 8.70961 32.1123 6.85567 30.8434C6.40549 27.4697 6.82056 24.4018 7.86996 21.5334C7.86874 21.517 7.86813 21.5088 7.86813 21.5088C8.16838 20.6634 8.51914 19.8306 8.9204 19.0106L11.0297 19.7172C11.3066 23.4248 12.4625 24.968 11.7387 27.2195C12.1846 26.2233 13.4273 25.612 14.7552 25.8091C15.6323 25.9411 16.3589 26.3807 16.7761 26.9914C16.8114 27.0217 16.8474 27.0602 16.8839 27.1068C17.4915 26.617 18.2844 26.2862 19.1715 26.22C20.0092 26.1574 20.8197 26.3932 21.4952 26.8118C22.0965 26.5694 22.6047 26.408 23.092 26.2975C23.9927 26.0821 24.7319 26.0269 25.5012 26.0435C26.4449 26.0718 27.394 26.1738 28.7054 26.1499C29.9812 25.9805 30.9046 25.7387 31.8336 25.5706C32.5919 25.4399 33.3558 25.3828 34.2538 25.4639C34.7521 25.5008 35.2787 25.5849 35.9094 25.7353C36.5151 25.2209 37.2816 24.8674 38.1194 24.8048C39.0064 24.7386 39.8643 24.9461 40.5133 25.3421C40.5425 25.2905 40.5723 25.2471 40.6027 25.2119C40.9492 24.5441 41.6025 24.0015 42.4256 23.7425C43.7341 23.3485 45.0292 23.7703 45.6428 24.6874C44.5926 22.5684 45.4818 20.8724 45.2049 17.1648L47.1858 16.1527C47.7044 16.904 48.175 17.6755 48.5975 18.4669C48.5975 18.4669 48.5981 18.4751 48.5993 18.4915C50.0631 21.1722 50.9293 24.1444 50.9853 27.5475Z" fill="#7D7C7C"/>
<path d="M22.1909 35.2177C22.1194 35.1401 22.0554 35.0537 21.999 34.9584C21.5907 34.4416 21.0336 33.9111 20.3293 33.3916C18.4457 29.9501 15.2476 29.3681 11.8413 29.2991C10.8952 29.1708 9.83943 29.2247 8.72125 29.4326L8.71941 29.4079C7.8904 27.8778 7.65293 25.3582 7.85304 21.4377C6.81186 24.3265 6.40187 27.4168 6.85291 30.816C8.84074 32.6824 10.7903 33.706 12.7089 33.9856C14.1054 34.2047 15.4742 34.0527 16.8435 33.5773C20.8826 36.5348 21.6427 36.3242 22.4722 37.5309C22.8597 38.099 22.1225 37.2943 22.5365 37.7775C22.6104 37.8881 24.8781 39.3444 23.1176 39.6742L22.828 40.6237C22.828 40.6237 24.0927 37.9115 22.1909 35.2177Z" fill="#6F6B6B"/>
<path d="M38.1303 24.8106C37.2915 24.8732 36.5243 25.2281 35.9179 25.7445C32.8463 27.4618 29.8784 26.9147 29.2743 28.1253C29.2305 28.203 29.3209 34.3956 29.3283 34.4943C29.2962 34.3975 28.5188 28.3057 28.4621 28.2108C27.6848 27.1033 24.78 28.0642 21.4873 26.8223C20.811 26.4016 19.9995 26.1647 19.1608 26.2273C18.2728 26.2936 17.479 26.6257 16.8708 27.1175C17.9393 27.8064 19.1702 31.3349 20.393 33.4258C20.8749 34.2329 21.4107 34.7632 22.0075 35.1154C22.9169 35.6675 23.9412 35.7645 24.9581 35.763C26.4948 35.7474 28.1969 35.6203 29.3559 34.8642C30.5897 35.4416 32.2917 35.3145 33.8138 35.1016C34.8196 34.9521 35.8181 34.7039 36.6354 34.0229C37.1733 33.586 37.6243 32.982 37.981 32.1122C38.9043 29.8611 39.5728 26.1907 40.5271 25.3507C39.8772 24.9529 39.0183 24.7443 38.1303 24.8106Z" fill="#7D7C7C"/>
<path d="M36.3108 34.1632C36.3707 34.0758 36.43 33.9802 36.4887 33.8763C36.8196 33.3043 37.2724 32.6983 37.8987 32.0794C39.2674 28.3951 42.3768 27.3419 45.7709 26.7651C46.6974 26.4969 47.7606 26.3926 48.9092 26.4312L48.9073 26.4064C49.5074 24.7696 49.3685 22.2426 48.583 18.3958C50.055 21.0968 50.9263 24.0915 50.9831 27.5201C49.2751 29.6626 47.4795 30.9658 45.6037 31.5288C44.2406 31.954 42.8499 32.0081 41.4103 31.7425C40.8864 33.3986 34.2841 37.1322 33.6353 38.4494C33.3328 39.069 30.4694 34.9423 32.0671 36.5664C32.0097 36.6868 32.3451 36.8004 32.2865 36.9043L31.4213 38.9453C31.4213 38.9453 34.8372 37.1091 36.3108 34.1632Z" fill="#6F6B6B"/>
<path d="M16.6811 14.7629C14.9427 16.2565 13.0604 17.5476 11.0476 18.6268C10.7671 18.2033 10.4851 17.7774 10.2015 17.3492C11.9399 15.8556 13.8223 14.5645 15.835 13.4853C16.1186 13.9135 16.4006 14.3393 16.6811 14.7629Z" fill="#2F2F2F"/>
<path d="M11.4425 17.487C12.1585 18.5481 11.8789 20.0032 10.8064 20.7282C9.73391 21.4533 8.28103 21.1695 7.56505 20.1083C6.84445 19.0403 7.12405 17.5853 8.19654 16.8602C9.26903 16.1351 10.7219 16.419 11.4425 17.487Z" fill="#2F2F2F"/>
<path d="M19.3224 12.0109C20.0384 13.072 19.7588 14.5271 18.6863 15.2521C17.6138 15.9772 16.1609 15.6934 15.4449 14.6323C14.7243 13.5643 15.0039 12.1092 16.0764 11.3841C17.1489 10.6591 18.6018 10.9429 19.3224 12.0109Z" fill="#2F2F2F"/>
<path d="M8.32016 18.5592C8.25784 19.1196 8.09291 19.2609 7.85856 19.2698C7.57596 19.2813 7.35429 18.9826 7.43057 18.4726C7.50234 17.9855 7.78171 17.717 8.0715 17.7903C8.28082 17.8482 8.38956 18.0538 8.32016 18.5592Z" fill="white"/>
<path d="M16.1735 13.102C16.1112 13.6623 15.9393 13.8083 15.705 13.8172C15.4293 13.8241 15.2076 13.5254 15.277 13.02C15.3488 12.533 15.635 12.2598 15.9179 12.3377C16.1341 12.391 16.236 12.6012 16.1735 13.102Z" fill="white"/>
<path d="M44.9086 16.9076C42.9043 15.8145 41.0202 14.501 39.2699 12.9764C39.5296 12.5353 39.7907 12.0918 40.0532 11.6459C42.0575 12.739 43.9416 14.0526 45.6918 15.5771C45.4293 16.023 45.1682 16.4665 44.9086 16.9076Z" fill="#2F2F2F"/>
<path d="M40.6305 12.723C39.9435 13.8 38.4836 14.1026 37.3729 13.3847C36.2622 12.6668 35.928 11.2045 36.6149 10.1275C37.3063 9.04357 38.7662 8.74098 39.8769 9.45889C40.9876 10.1768 41.3218 11.6391 40.6305 12.723Z" fill="#2F2F2F"/>
<path d="M48.3424 18.4327C47.6554 19.5097 46.1955 19.8123 45.0848 19.0944C43.9741 18.3765 43.6399 16.9142 44.3268 15.8372C45.0182 14.7533 46.4781 14.4507 47.5888 15.1686C48.6995 15.8865 49.0338 17.3488 48.3424 18.4327Z" fill="#2F2F2F"/>
<path d="M38.5071 10.2223C37.9626 10.381 37.764 10.2823 37.6594 10.0678C37.5326 9.80951 37.718 9.48792 38.2216 9.36169C38.7021 9.24014 39.0656 9.39611 39.1168 9.69389C39.1493 9.9109 39.0036 10.0915 38.5071 10.2223Z" fill="white"/>
<path d="M46.1935 15.9124C45.649 16.0711 45.4432 15.9678 45.3386 15.7533C45.2189 15.4996 45.4044 15.178 45.9009 15.0472C46.3814 14.9257 46.752 15.0862 46.7961 15.3794C46.8357 15.601 46.6829 15.777 46.1935 15.9124Z" fill="white"/>
<path d="M17.8398 22.615C17.6384 21.3409 17.6631 19.4092 18.4416 18.3731C19.7905 16.6016 21.7376 14.4975 24.2598 15.2043C26.0808 15.7205 27.6595 16.4697 28.8244 17.1351C30.2477 17.9332 31.988 17.9354 33.409 17.1206C35.4882 15.9308 37.8989 16.4915 39.253 18.4695C39.4793 18.7899 39.5269 19.0208 39.6861 19.3762C40.7401 21.7242 36.6403 33.2148 34.747 39.9306C32.8581 46.6549 34.0997 56.0146 34.1713 56.1791C34.2428 56.3436 35.3744 58.6437 33.0603 57.6575C30.7505 56.6797 26.641 50.2895 22.9106 40.5803C21.1662 36.0369 18.345 25.762 17.8398 22.615Z" fill="#900B21"/>
<path d="M43.0483 4.25335C41.5659 2.56834 39.0768 1.94027 36.8556 2.43081C34.6216 2.91728 32.6633 4.41307 31.3556 6.2966C30.533 7.48174 29.7725 9.01484 29.37 10.5356C29.2665 10.9568 28.8764 11.2383 28.4458 11.2136C26.9793 11.154 25.8586 11.1831 25.7649 11.1883C25.7649 11.1883 25.7606 11.187 25.7521 11.1843L25.0666 11.2884C23.4403 11.5204 22.0325 12.5271 21.3014 13.9927C21.2594 14.0771 21.3496 14.1685 21.443 14.1213C22.3434 13.6872 25.2415 12.4962 27.4008 14.0814C29.9843 15.9686 30.9148 16.7733 33.1524 16.1902C35.2538 15.6338 35.6853 14.5831 37.2348 14.9274C37.3287 14.9432 37.4047 14.8416 37.3401 14.7583C36.9016 14.2212 35.8097 12.9183 35.1119 12.4807C34.4312 12.0555 33.3722 11.7688 32.2073 11.5674C31.9044 11.5203 31.6723 11.2582 31.6872 10.9556C31.7825 8.77865 32.7844 6.449 34.6426 5.25675C36.751 3.90633 39.2597 3.68149 41.4132 5.04832C41.8114 5.3002 42.2055 5.58573 42.5022 5.95213C42.8118 6.3436 43.0245 6.87894 43.1515 7.35221C43.3743 8.11427 43.4027 9.10108 42.6347 9.58414C42.2953 9.79788 41.8307 9.79035 41.4884 9.60507C41.2104 9.46109 40.8492 9.61206 40.7363 9.91153C40.64 10.1604 40.7022 10.5084 40.954 10.5602C45.2906 11.4663 45.0377 6.50409 43.0483 4.25335Z" fill="#28594A"/>
<path d="M14.7127 18.0261C14.4686 18.1883 14.1594 18.1634 13.965 17.962L12.1092 15.7488L12.9325 15.1113L14.7883 17.3245C14.9845 17.5499 14.9294 17.8419 14.7127 18.0261Z" fill="#7D7C7C"/>
<path d="M13.9265 18.5876C13.6825 18.7499 13.3733 18.725 13.1789 18.5235L11.323 16.3103L12.1463 15.6729L14.0022 17.8861C14.1983 18.1114 14.1433 18.4035 13.9265 18.5876Z" fill="#7D7C7C"/>
<path d="M15.463 17.4997C15.251 17.6611 14.9255 17.6369 14.736 17.4327L12.8403 15.0504L13.6406 14.4325L15.5345 16.7906C15.7258 17.019 15.6732 17.3141 15.463 17.4997Z" fill="#7D7C7C"/>
<path d="M15.8615 16.6738C15.6556 16.8643 15.3338 16.8133 15.1712 16.6003L14.7112 16.0093L13.5501 14.545L13.4155 14.38L13.9209 13.942C13.9894 13.9869 14.058 14.0318 14.1266 14.0767C14.2126 14.137 14.2987 14.1973 14.3847 14.2575C14.4882 14.3332 14.5917 14.4088 14.6952 14.4845C14.7999 14.5767 14.9046 14.669 15.0093 14.7612L15.9554 15.9664C16.1181 16.1793 16.0936 16.5064 15.8615 16.6738Z" fill="#7D7C7C"/>
<path d="M42.2536 16.2642L42.2553 16.2881C42.4934 16.4146 42.7658 16.3221 42.9031 16.1195L44.2127 13.93L43.3904 13.4625L42.0808 15.652C41.9454 15.8785 42.0173 16.1617 42.2536 16.2642Z" fill="#7D7C7C"/>
<path d="M41.2973 16.0406C41.5478 16.1659 41.8319 16.0966 41.9837 15.8693L43.3913 13.4124L42.5334 12.9005L41.1258 15.3575C40.9758 15.6086 41.0691 15.8896 41.2973 16.0406Z" fill="#7D7C7C"/>
<path d="M40.4916 15.6303C40.7253 15.7585 41.0435 15.6862 41.2006 15.456L42.7214 12.8186L41.8382 12.3264L40.3156 14.9397C40.1603 15.194 40.2562 15.478 40.4916 15.6303Z" fill="#7D7C7C"/>
<path d="M39.8186 14.8846C40.0506 15.0424 40.3612 14.9441 40.5147 14.7075L40.8818 14.0547L41.7882 12.436L41.8968 12.2528L41.332 11.8948C41.2708 11.9494 41.2097 12.0039 41.1485 12.0585C41.0724 12.1309 40.9963 12.2033 40.9202 12.2757C40.8291 12.3659 40.7379 12.4561 40.6468 12.5463C40.557 12.6531 40.4752 12.7592 40.4016 12.8648L39.6207 14.1989C39.4915 14.4337 39.5643 14.7535 39.8186 14.8846Z" fill="#7D7C7C"/>
</g>
<defs>
<clipPath id="clip0_452_373">
<rect width="60" height="60" fill="white"/>
</clipPath>
</defs>
</svg>
