<svg width="50" height="50" viewBox="0 0 50 50" fill="none" xmlns="http://www.w3.org/2000/svg">
<circle cx="25" cy="25" r="24" stroke="#900B21" stroke-width="2"/>
<path d="M11.6149 32.7738L7 16.2262H9.64056L12.8824 29.0409H13.0367L16.4085 16.2262H19.0247L22.3965 29.049H22.5509L25.7845 16.2262H28.4332L23.8102 32.7738H21.2834L17.7816 20.3793H17.6516L14.1498 32.7738H11.6149Z" fill="#900B21"/>
<path d="M42 21.6074H39.4651C39.3676 21.0688 39.1861 20.5947 38.9207 20.1854C38.6553 19.776 38.3303 19.4285 37.9457 19.1431C37.5612 18.8576 37.1305 18.6421 36.6539 18.4967C36.1826 18.3512 35.6816 18.2785 35.1508 18.2785C34.1921 18.2785 33.3336 18.5182 32.5752 18.9976C31.8223 19.477 31.2265 20.18 30.7878 21.1065C30.3545 22.033 30.1378 23.1641 30.1378 24.5C30.1378 25.8466 30.3545 26.9832 30.7878 27.9097C31.2265 28.8362 31.825 29.5364 32.5834 30.0105C33.3417 30.4845 34.1948 30.7215 35.1427 30.7215C35.6681 30.7215 36.1664 30.6515 36.6376 30.5114C37.1143 30.366 37.5449 30.1532 37.9295 29.8731C38.3141 29.593 38.639 29.2509 38.9045 28.847C39.1753 28.4376 39.3622 27.9689 39.4651 27.4411L42 27.4491C41.8646 28.2625 41.6019 29.0112 41.2119 29.6953C40.8273 30.3741 40.3317 30.9612 39.7251 31.4567C39.1238 31.9469 38.4359 32.3267 37.6614 32.596C36.8868 32.8653 36.0418 33 35.1264 33C33.6856 33 32.4019 32.6606 31.2753 31.9819C30.1486 31.2978 29.2603 30.3202 28.6103 29.049C27.9658 27.7777 27.6435 26.2614 27.6435 24.5C27.6435 22.7332 27.9685 21.2169 28.6185 19.951C29.2684 18.6798 30.1568 17.7048 31.2834 17.0261C32.41 16.342 33.691 16 35.1264 16C36.0093 16 36.8326 16.1266 37.5964 16.3798C38.3655 16.6275 39.0561 16.9938 39.6682 17.4786C40.2803 17.958 40.7867 18.5452 41.1875 19.24C41.5883 19.9295 41.8592 20.7186 42 21.6074Z" fill="#900B21"/>
</svg>
