<svg width="50" height="50" viewBox="0 0 50 50" fill="none" xmlns="http://www.w3.org/2000/svg">
<circle cx="25" cy="25" r="24" stroke="#900B21" stroke-width="2"/>
<path d="M37.6867 13.7406C36.9537 12.8718 36.0833 12.1825 35.1254 11.7123C34.1675 11.242 33.1407 11 32.1038 11C31.0669 11 30.0402 11.242 29.0822 11.7123C28.1243 12.1825 27.254 12.8718 26.5209 13.7406L24.9996 15.543L23.4783 13.7406C21.9976 11.9864 19.9894 11.0009 17.8954 11.0009C15.8014 11.0009 13.7932 11.9864 12.3125 13.7406C10.8318 15.4948 10 17.8741 10 20.3549C10 22.8357 10.8318 25.2149 12.3125 26.9691L13.8338 28.7715L24.9996 42L36.1654 28.7715L37.6867 26.9691C38.4201 26.1007 39.0019 25.0696 39.3988 23.9347C39.7957 22.7998 40 21.5833 40 20.3549C40 19.1264 39.7957 17.91 39.3988 16.7751C39.0019 15.6402 38.4201 14.6091 37.6867 13.7406Z" stroke="#900B21" stroke-width="2" stroke-linecap="round" stroke-linejoin="round"/>
</svg>
