<svg width="50" height="50" viewBox="0 0 50 50" fill="none" xmlns="http://www.w3.org/2000/svg">
<path d="M32.125 30.0503L25.8251 44C24.5719 44 23.3701 43.5101 22.484 42.6381C21.5979 41.766 21.1001 40.5833 21.1001 39.3501V33.1502H12.1857C11.7291 33.1553 11.2768 33.0626 10.8602 32.8786C10.4436 32.6946 10.0726 32.4237 9.77299 32.0846C9.47336 31.7455 9.25222 31.3463 9.12491 30.9147C8.9976 30.4832 8.96715 30.0295 9.03567 29.5853L11.2092 15.6355C11.3231 14.8963 11.7046 14.2225 12.2835 13.7383C12.8623 13.2541 13.5995 12.9921 14.3591 13.0006H32.125M32.125 30.0503V13.0006M32.125 30.0503H36.3303C37.2217 30.0658 38.0878 29.7586 38.7643 29.1872C39.4408 28.6157 39.8805 27.8198 40 26.9503V16.1005C39.8805 15.2311 39.4408 14.4351 38.7643 13.8636C38.0878 13.2922 37.2217 12.985 36.3303 13.0006H32.125" stroke="#900B21" stroke-width="2" stroke-linecap="round" stroke-linejoin="round"/>
<circle cx="25" cy="25" r="24" stroke="#900B21" stroke-width="2"/>
</svg>
