<svg width="50" height="50" viewBox="0 0 50 50" fill="none" xmlns="http://www.w3.org/2000/svg">
<circle cx="25" cy="25" r="24" stroke="#900B21" stroke-width="2"/>
<path fill-rule="evenodd" clip-rule="evenodd" d="M9 40.2737C9 39.3387 9.86314 38.5834 10.9421 38.5834H11.6613C11.6973 38.1159 11.8411 37.6843 12.1648 37.2887L36.3326 7.83426C37.1598 6.86324 38.5983 6.7194 39.5693 7.5106C40.5763 8.33777 40.7202 9.77633 39.893 10.7474L32.1608 20.2059C34.1388 23.047 32.9879 28.3697 29.3196 32.7573C26.946 35.5625 24.2847 37.3966 21.8391 38.5834H35.0019C36.0808 38.5834 36.944 39.3387 36.944 40.2737C36.944 41.2448 36.0808 42 35.0019 42H10.9421C9.86314 42 9 41.2448 9 40.2737ZM10.007 40.2737C10.007 40.6693 10.4386 40.9571 10.9421 40.9571H35.0019C35.5054 40.9571 35.901 40.6693 35.901 40.2737C35.901 39.9141 35.5054 39.5904 35.0019 39.5904H19.3217C16.3366 40.5974 13.9271 40.7053 13.1359 40.7053C12.992 40.7053 12.9081 40.7053 12.8841 40.7053C12.7402 40.6813 12.6084 40.6214 12.4885 40.5255C12.1648 40.2737 11.949 39.9501 11.8052 39.5904H10.9421C10.4386 39.5904 10.007 39.9141 10.007 40.2737ZM13.2078 39.3387C14.6823 39.3027 22.4145 38.8352 28.2767 31.8582C31.6573 27.8302 32.7722 22.8312 30.7582 20.6734C30.5424 20.4216 30.5424 20.026 30.7582 19.7743L38.8501 9.88421C38.9939 9.70439 39.0658 9.45264 39.0658 9.20089C39.0299 8.94914 38.922 8.73338 38.7062 8.58952C38.5623 8.44566 38.3466 8.37372 38.1308 8.37372C38.0828 8.37372 38.0469 8.37372 38.0229 8.37372C37.7712 8.40969 37.5554 8.51759 37.4115 8.69741L13.2078 38.1519C12.9201 38.5115 12.9201 38.979 13.2078 39.3387Z" fill="#900B21"/>
</svg>
