<svg width="29" height="26" viewBox="0 0 29 26" fill="none" xmlns="http://www.w3.org/2000/svg">
<path d="M28.8177 0.276651C29.0957 0.620176 28.9576 1.12143 28.8745 1.55541L24.6108 23.8177C24.5317 24.2304 24.4329 24.654 24.1538 24.968C23.9104 25.2418 23.5251 25.5158 22.964 25.4988C22.3882 25.4814 21.8998 25.1059 21.4487 24.7477L11.7298 17.0317C11.7279 17.0302 11.7259 17.0289 11.7238 17.0278C11.7012 17.0162 11.6921 16.9904 11.7107 16.9731C13.2458 15.5459 23.9811 5.55103 24.4545 5.09398C25.191 4.38148 24.7335 3.9585 23.8785 4.4955L10.6717 13.1811C8.85199 14.3778 6.57898 14.6593 4.5223 13.9428L1.63415 12.9366C1.59569 12.9232 1.55779 12.9097 1.52041 12.8936C1.31135 12.8031 0.584983 12.4429 0.505474 11.7735C0.430563 11.1625 1.14389 10.7698 1.46091 10.6268C1.55766 10.5831 1.65719 10.546 1.75553 10.5061L26.7858 0.337605C26.8746 0.301528 26.9622 0.263397 27.0516 0.228841C27.4114 0.0897857 28.4063 -0.231916 28.8177 0.276651Z" fill="#FCF9F4"/>
</svg>
