<svg width="34" height="24" viewBox="0 0 34 24" fill="none" xmlns="http://www.w3.org/2000/svg">
<path fill-rule="evenodd" clip-rule="evenodd" d="M3.89318 22.5852C3.30518 22.4112 2.76818 22.1007 2.32868 21.6822C1.88918 21.2622 1.55768 20.7462 1.36568 20.1762C0.264683 17.2302 -0.0623085 4.93018 2.05869 2.50168C2.76519 1.71118 3.76119 1.22517 4.83219 1.14867C10.5202 0.55167 28.0957 0.631199 30.1147 1.3467C30.6832 1.5267 31.2007 1.8297 31.6327 2.2332C32.0632 2.6367 32.3947 3.13017 32.6032 3.67617C33.8062 6.72117 33.8467 17.7882 32.4397 20.7147C32.0662 21.4752 31.4407 22.0932 30.6652 22.4652C28.5457 23.5002 6.70718 23.4807 3.89318 22.5852ZM12.9262 16.8132L23.1217 11.6382L12.9262 6.4227V16.8132Z" fill="#FCF9F4"/>
</svg>
